<mxfile host="Electron" agent="Mozilla/5.0 (Windows NT 10.0; Win64; x64) AppleWebKit/537.36 (KHTML, like Gecko) draw.io/27.0.9 Chrome/134.0.6998.205 Electron/35.4.0 Safari/537.36" version="27.0.9">
  <diagram name="第 1 页" id="ehc574ezUDm6jUMXyMpv">
    <mxGraphModel dx="4349" dy="1848" grid="1" gridSize="10" guides="1" tooltips="1" connect="1" arrows="1" fold="1" page="1" pageScale="1" pageWidth="1169" pageHeight="1654" math="0" shadow="0">
      <root>
        <mxCell id="0" />
        <mxCell id="1" parent="0" />
        <mxCell id="UvsXHOnpaCu9hmhHPp6C-1" value="" style="rounded=0;whiteSpace=wrap;html=1;fillColor=none;strokeColor=#6c8ebf;" parent="1" vertex="1">
          <mxGeometry x="220" y="200" width="820" height="1020" as="geometry" />
        </mxCell>
        <mxCell id="UvsXHOnpaCu9hmhHPp6C-2" value="&lt;div style=&quot;line-height: 10%;&quot;&gt;&lt;h1 style=&quot;line-height: 10%;&quot;&gt;&lt;font&gt;&lt;span style=&quot;font-size: 18px; line-height: 10%;&quot;&gt;GPIO和pinctrl节点图示（掌握）&lt;/span&gt;&lt;/font&gt;&lt;/h1&gt;&lt;/div&gt;" style="html=1;shadow=0;dashed=0;shape=mxgraph.bootstrap.rrect;rSize=5;strokeColor=#6c8ebf;strokeWidth=1;fillColor=#dae8fc;whiteSpace=wrap;align=center;verticalAlign=middle;spacingLeft=0;fontStyle=1;fontSize=14;spacing=5;" parent="1" vertex="1">
          <mxGeometry x="220" y="200" width="820" height="30" as="geometry" />
        </mxCell>
        <mxCell id="UvsXHOnpaCu9hmhHPp6C-3" value="&lt;span style=&quot;font-size: 16px;&quot;&gt;// 引脚控制器（被gpio-ranges引用）&lt;/span&gt;" style="text;html=1;align=left;verticalAlign=middle;whiteSpace=wrap;rounded=0;dashed=1;fontSize=14;fillColor=none;" parent="1" vertex="1">
          <mxGeometry x="220" y="230" width="820" height="20" as="geometry" />
        </mxCell>
        <mxCell id="UvsXHOnpaCu9hmhHPp6C-4" value="&lt;font style=&quot;font-size: 16px;&quot;&gt;&lt;span style=&quot;white-space: pre;&quot;&gt;&#x9;&lt;/span&gt;&lt;/font&gt;&lt;span style=&quot;font-size: 16px;&quot;&gt;rockchip,grf = &amp;lt;&amp;amp;grf&amp;gt;;&amp;nbsp; &amp;nbsp; &amp;nbsp; &amp;nbsp; &amp;nbsp; &amp;nbsp; &amp;nbsp; &amp;nbsp; &amp;nbsp; &amp;nbsp; &amp;nbsp; &amp;nbsp; &amp;nbsp; &amp;nbsp; &lt;span style=&quot;white-space: pre;&quot;&gt;&#x9;&lt;/span&gt;&lt;span style=&quot;white-space: pre;&quot;&gt;&#x9;&lt;/span&gt;&lt;span style=&quot;white-space: pre;&quot;&gt;&#x9;&lt;/span&gt;&lt;span style=&quot;white-space: pre;&quot;&gt;&#x9;&lt;/span&gt;&lt;span style=&quot;white-space: pre;&quot;&gt;&#x9;&lt;/span&gt;&lt;span style=&quot;white-space: pre;&quot;&gt;&#x9;&lt;span style=&quot;white-space: pre;&quot;&gt;&#x9;&lt;/span&gt;&lt;/span&gt;// 通过引用获取寄存器基地址&lt;/span&gt;" style="text;html=1;align=left;verticalAlign=middle;whiteSpace=wrap;rounded=0;dashed=1;fontSize=14;fillColor=#f5f5f5;fontColor=#333333;strokeColor=none;" parent="1" vertex="1">
          <mxGeometry x="220" y="290" width="820" height="20" as="geometry" />
        </mxCell>
        <mxCell id="UvsXHOnpaCu9hmhHPp6C-5" value="&lt;span style=&quot;font-size: 16px;&quot;&gt;&lt;span style=&quot;white-space: pre;&quot;&gt;&#x9;&lt;/span&gt;uart2 {                                           // function：UART2功能&lt;/span&gt;" style="text;html=1;align=left;verticalAlign=middle;whiteSpace=wrap;rounded=0;dashed=1;fontSize=14;fillColor=#e1d5e7;strokeColor=none;" parent="1" vertex="1">
          <mxGeometry x="220" y="310" width="820" height="20" as="geometry" />
        </mxCell>
        <mxCell id="UvsXHOnpaCu9hmhHPp6C-15" value="&lt;span style=&quot;font-size: 16px;&quot;&gt;pinctrl: pinctrl {&lt;/span&gt;" style="text;html=1;align=left;verticalAlign=middle;whiteSpace=wrap;rounded=0;dashed=1;fontSize=14;fillColor=none;" parent="1" vertex="1">
          <mxGeometry x="220" y="250" width="820" height="20" as="geometry" />
        </mxCell>
        <mxCell id="UvsXHOnpaCu9hmhHPp6C-17" value="&lt;span style=&quot;font-size: 16px;&quot;&gt;&lt;span style=&quot;white-space: pre;&quot;&gt;&#x9;&lt;span style=&quot;white-space: pre;&quot;&gt;&#x9;&lt;/span&gt;&lt;/span&gt;uart2m0_xfer: uart2m0-xfer {&amp;nbsp; &amp;nbsp; &amp;nbsp; &amp;nbsp; &amp;nbsp; &amp;nbsp; &amp;nbsp; &amp;nbsp; &amp;nbsp; &lt;span style=&quot;white-space: pre;&quot;&gt;&#x9;&lt;/span&gt;&lt;span style=&quot;white-space: pre;&quot;&gt;&#x9;&lt;/span&gt;&lt;span style=&quot;white-space: pre;&quot;&gt;&#x9;&lt;/span&gt;&lt;span style=&quot;white-space: pre;&quot;&gt;&#x9;&lt;span style=&quot;white-space: pre;&quot;&gt;&#x9;&lt;/span&gt;&lt;/span&gt;// group：发送接收引脚组&lt;/span&gt;" style="text;html=1;align=left;verticalAlign=middle;whiteSpace=wrap;rounded=0;dashed=1;fontSize=14;fillColor=#e1d5e7;strokeColor=none;" parent="1" vertex="1">
          <mxGeometry x="220" y="330" width="820" height="20" as="geometry" />
        </mxCell>
        <mxCell id="UvsXHOnpaCu9hmhHPp6C-18" value="" style="shape=table;startSize=0;container=1;collapsible=0;childLayout=tableLayout;fixedRows=1;rowLines=0;fontStyle=0;strokeColor=#6c8ebf;fontSize=16;fillColor=none;" parent="1" vertex="1">
          <mxGeometry x="1110" y="279" width="610" height="202" as="geometry" />
        </mxCell>
        <mxCell id="UvsXHOnpaCu9hmhHPp6C-19" value="" style="shape=tableRow;horizontal=0;startSize=0;swimlaneHead=0;swimlaneBody=0;top=0;left=0;bottom=0;right=0;collapsible=0;dropTarget=0;fillColor=none;points=[[0,0.5],[1,0.5]];portConstraint=eastwest;strokeColor=inherit;fontSize=16;" parent="UvsXHOnpaCu9hmhHPp6C-18" vertex="1">
          <mxGeometry width="610" height="41" as="geometry" />
        </mxCell>
        <mxCell id="UvsXHOnpaCu9hmhHPp6C-20" value="&lt;b&gt;&lt;font style=&quot;color: light-dark(rgb(0, 0, 0), rgb(255, 255, 255));&quot;&gt;gpio-controller（不改）&lt;/font&gt;&lt;/b&gt;" style="shape=partialRectangle;html=1;whiteSpace=wrap;connectable=0;top=0;left=0;bottom=0;right=0;overflow=hidden;pointerEvents=1;fontSize=16;fillColor=#d5e8d4;strokeColor=#82b366;" parent="UvsXHOnpaCu9hmhHPp6C-19" vertex="1">
          <mxGeometry width="130" height="41" as="geometry">
            <mxRectangle width="130" height="41" as="alternateBounds" />
          </mxGeometry>
        </mxCell>
        <mxCell id="UvsXHOnpaCu9hmhHPp6C-21" value="标识当前节点所描述的设备是&lt;b&gt;GPIO控制器&lt;/b&gt;" style="shape=partialRectangle;html=1;whiteSpace=wrap;connectable=0;fillColor=none;top=0;left=0;bottom=0;right=0;align=left;spacingLeft=6;overflow=hidden;strokeColor=inherit;fontSize=16;" parent="UvsXHOnpaCu9hmhHPp6C-19" vertex="1">
          <mxGeometry x="130" width="480" height="41" as="geometry">
            <mxRectangle width="480" height="41" as="alternateBounds" />
          </mxGeometry>
        </mxCell>
        <mxCell id="UvsXHOnpaCu9hmhHPp6C-22" value="" style="shape=tableRow;horizontal=0;startSize=0;swimlaneHead=0;swimlaneBody=0;top=0;left=0;bottom=0;right=0;collapsible=0;dropTarget=0;fillColor=none;points=[[0,0.5],[1,0.5]];portConstraint=eastwest;strokeColor=inherit;fontSize=16;" parent="UvsXHOnpaCu9hmhHPp6C-18" vertex="1">
          <mxGeometry y="41" width="610" height="40" as="geometry" />
        </mxCell>
        <mxCell id="UvsXHOnpaCu9hmhHPp6C-23" value="&lt;b&gt;#gpio-cells&lt;br&gt;&lt;/b&gt;&lt;b&gt;（不改）&lt;/b&gt;" style="shape=partialRectangle;html=1;whiteSpace=wrap;connectable=0;fillColor=#ffe6cc;top=0;left=0;bottom=0;right=0;overflow=hidden;pointerEvents=1;strokeColor=#d79b00;fontSize=16;" parent="UvsXHOnpaCu9hmhHPp6C-22" vertex="1">
          <mxGeometry width="130" height="40" as="geometry">
            <mxRectangle width="130" height="40" as="alternateBounds" />
          </mxGeometry>
        </mxCell>
        <mxCell id="UvsXHOnpaCu9hmhHPp6C-24" value="使用该gpio控制器时，gpios属性的值中u32的个数" style="shape=partialRectangle;html=1;whiteSpace=wrap;connectable=0;fillColor=none;top=0;left=0;bottom=0;right=0;align=left;spacingLeft=6;overflow=hidden;strokeColor=inherit;fontSize=16;" parent="UvsXHOnpaCu9hmhHPp6C-22" vertex="1">
          <mxGeometry x="130" width="480" height="40" as="geometry">
            <mxRectangle width="480" height="40" as="alternateBounds" />
          </mxGeometry>
        </mxCell>
        <mxCell id="EzJvQKpD51RxZactWaan-44" value="" style="shape=tableRow;horizontal=0;startSize=0;swimlaneHead=0;swimlaneBody=0;top=0;left=0;bottom=0;right=0;collapsible=0;dropTarget=0;fillColor=none;points=[[0,0.5],[1,0.5]];portConstraint=eastwest;strokeColor=inherit;fontSize=16;" vertex="1" parent="UvsXHOnpaCu9hmhHPp6C-18">
          <mxGeometry y="81" width="610" height="80" as="geometry" />
        </mxCell>
        <mxCell id="EzJvQKpD51RxZactWaan-45" value="&lt;b&gt;&lt;font style=&quot;color: light-dark(rgb(0, 0, 0), rgb(255, 255, 255));&quot;&gt;gpio-range&lt;br&gt;&lt;/font&gt;&lt;/b&gt;&lt;b&gt;（不改）&lt;/b&gt;" style="shape=partialRectangle;html=1;whiteSpace=wrap;connectable=0;top=0;left=0;bottom=0;right=0;overflow=hidden;pointerEvents=1;fontSize=16;fillColor=#fff2cc;strokeColor=#d6b656;" vertex="1" parent="EzJvQKpD51RxZactWaan-44">
          <mxGeometry width="130" height="80" as="geometry">
            <mxRectangle width="130" height="80" as="alternateBounds" />
          </mxGeometry>
        </mxCell>
        <mxCell id="EzJvQKpD51RxZactWaan-46" value="将引脚的本地编号映射到实际的引脚编号&lt;br&gt;&lt;b&gt;格式：phandle gpio-controller-base-pin gpio-base gpio-count&lt;br&gt;解决：GPIO本地编号和外部编号不一致的问题&lt;/b&gt;" style="shape=partialRectangle;html=1;whiteSpace=wrap;connectable=0;fillColor=none;top=0;left=0;bottom=0;right=0;align=left;spacingLeft=6;overflow=hidden;strokeColor=inherit;fontSize=16;" vertex="1" parent="EzJvQKpD51RxZactWaan-44">
          <mxGeometry x="130" width="480" height="80" as="geometry">
            <mxRectangle width="480" height="80" as="alternateBounds" />
          </mxGeometry>
        </mxCell>
        <mxCell id="EzJvQKpD51RxZactWaan-47" value="" style="shape=tableRow;horizontal=0;startSize=0;swimlaneHead=0;swimlaneBody=0;top=0;left=0;bottom=0;right=0;collapsible=0;dropTarget=0;fillColor=none;points=[[0,0.5],[1,0.5]];portConstraint=eastwest;strokeColor=inherit;fontSize=16;" vertex="1" parent="UvsXHOnpaCu9hmhHPp6C-18">
          <mxGeometry y="161" width="610" height="41" as="geometry" />
        </mxCell>
        <mxCell id="EzJvQKpD51RxZactWaan-48" value="&lt;b&gt;&lt;font style=&quot;color: light-dark(rgb(0, 0, 0), rgb(255, 255, 255));&quot;&gt;gpios&lt;/font&gt;&lt;/b&gt;" style="shape=partialRectangle;html=1;whiteSpace=wrap;connectable=0;top=0;left=0;bottom=0;right=0;overflow=hidden;pointerEvents=1;fontSize=16;fillColor=#f8cecc;strokeColor=#b85450;" vertex="1" parent="EzJvQKpD51RxZactWaan-47">
          <mxGeometry width="130" height="41" as="geometry">
            <mxRectangle width="130" height="41" as="alternateBounds" />
          </mxGeometry>
        </mxCell>
        <mxCell id="EzJvQKpD51RxZactWaan-49" value="具体的GPIO配置信息，参数个数和gpio-cells有关" style="shape=partialRectangle;html=1;whiteSpace=wrap;connectable=0;fillColor=none;top=0;left=0;bottom=0;right=0;align=left;spacingLeft=6;overflow=hidden;strokeColor=inherit;fontSize=16;" vertex="1" parent="EzJvQKpD51RxZactWaan-47">
          <mxGeometry x="130" width="480" height="41" as="geometry">
            <mxRectangle width="480" height="41" as="alternateBounds" />
          </mxGeometry>
        </mxCell>
        <mxCell id="UvsXHOnpaCu9hmhHPp6C-25" value="&lt;h1&gt;&lt;font style=&quot;&quot;&gt;&lt;font style=&quot;font-size: 18px;&quot;&gt;&lt;span style=&quot;background-color: transparent; color: light-dark(rgb(0, 0, 0), rgb(255, 255, 255));&quot;&gt;GPIO&lt;/span&gt;属性描述&lt;/font&gt;&lt;br&gt;&lt;/font&gt;&lt;/h1&gt;" style="rounded=0;whiteSpace=wrap;html=1;fillColor=#dae8fc;strokeColor=#6c8ebf;" parent="1" vertex="1">
          <mxGeometry x="1110" y="250" width="610" height="29" as="geometry" />
        </mxCell>
        <mxCell id="UvsXHOnpaCu9hmhHPp6C-28" value="&lt;span style=&quot;font-size: 16px;&quot;&gt;&lt;span style=&quot;white-space: pre;&quot;&gt;&#x9;&lt;/span&gt;compatible = &quot;rockchip,rk3568-pinctrl&quot;;&lt;/span&gt;" style="text;html=1;align=left;verticalAlign=middle;whiteSpace=wrap;rounded=0;dashed=1;fontSize=14;fillColor=none;" parent="1" vertex="1">
          <mxGeometry x="220" y="270" width="820" height="20" as="geometry" />
        </mxCell>
        <mxCell id="EzJvQKpD51RxZactWaan-1" value="&lt;span style=&quot;font-size: 16px;&quot;&gt;&lt;span style=&quot;white-space: pre;&quot;&gt;&#x9;&lt;span style=&quot;white-space: pre;&quot;&gt;&#x9;&lt;span style=&quot;white-space: pre;&quot;&gt;&#x9;&lt;/span&gt;&lt;/span&gt;&lt;/span&gt;rockchip,pins = &amp;lt;1 RK_PB0 1 &amp;amp;pcfg_pull_up&amp;gt;, &lt;span style=&quot;white-space: pre;&quot;&gt;&#x9;&lt;/span&gt;&lt;span style=&quot;white-space: pre;&quot;&gt;&#x9;&lt;/span&gt;&lt;span style=&quot;white-space: pre;&quot;&gt;&#x9;&lt;/span&gt;// IOMUX：bank1 RK_PB0 func1 上拉&lt;/span&gt;" style="text;html=1;align=left;verticalAlign=middle;whiteSpace=wrap;rounded=0;dashed=1;fontSize=14;strokeColor=none;fillColor=#e1d5e7;" vertex="1" parent="1">
          <mxGeometry x="220" y="350" width="820" height="20" as="geometry" />
        </mxCell>
        <mxCell id="EzJvQKpD51RxZactWaan-2" value="&lt;span style=&quot;font-size: 16px;&quot;&gt;&lt;span style=&quot;white-space: pre;&quot;&gt;&#x9;&lt;span style=&quot;white-space: pre;&quot;&gt;&#x9;&lt;span style=&quot;white-space: pre;&quot;&gt;&#x9;&lt;/span&gt;&lt;span style=&quot;white-space: pre;&quot;&gt;&#x9;&lt;/span&gt;&lt;span style=&quot;white-space: pre;&quot;&gt;&#x9;&lt;/span&gt; &lt;span style=&quot;white-space: pre;&quot;&gt;&#x9;&lt;/span&gt; &lt;/span&gt;&lt;/span&gt;&amp;lt;1 RK_PB2 1 &amp;amp;pcfg_pull_none&amp;gt;; &lt;span style=&quot;white-space: pre;&quot;&gt;&#x9;&lt;/span&gt;&lt;span style=&quot;white-space: pre;&quot;&gt;&#x9;&lt;/span&gt;&lt;span style=&quot;white-space: pre;&quot;&gt;&#x9;&lt;/span&gt;// IOMUX：bank1 RK_PB2 func1 无拉&lt;/span&gt;" style="text;html=1;align=left;verticalAlign=middle;whiteSpace=wrap;rounded=0;dashed=1;fontSize=14;fillColor=#e1d5e7;strokeColor=none;" vertex="1" parent="1">
          <mxGeometry x="220" y="370" width="820" height="20" as="geometry" />
        </mxCell>
        <mxCell id="EzJvQKpD51RxZactWaan-3" value="&lt;span style=&quot;font-size: 16px;&quot;&gt;&lt;span style=&quot;white-space: pre;&quot;&gt;&#x9;&lt;span style=&quot;white-space: pre;&quot;&gt;&#x9;&lt;/span&gt;&lt;/span&gt;};&lt;/span&gt;" style="text;html=1;align=left;verticalAlign=middle;whiteSpace=wrap;rounded=0;dashed=1;fontSize=14;fillColor=#e1d5e7;strokeColor=none;" vertex="1" parent="1">
          <mxGeometry x="220" y="390" width="820" height="20" as="geometry" />
        </mxCell>
        <mxCell id="EzJvQKpD51RxZactWaan-4" value="&lt;span style=&quot;font-size: 16px;&quot;&gt;&lt;span style=&quot;white-space: pre;&quot;&gt;&#x9;&lt;span style=&quot;white-space: pre;&quot;&gt;&#x9;&lt;/span&gt;&lt;/span&gt;uart2m0_ctsn: uart2m0-ctsn {&amp;nbsp; &amp;nbsp; &amp;nbsp; &amp;nbsp; &amp;nbsp; &amp;nbsp; &amp;nbsp; &amp;nbsp; &amp;nbsp; &lt;span style=&quot;white-space: pre;&quot;&gt;&#x9;&lt;/span&gt;&lt;span style=&quot;white-space: pre;&quot;&gt;&#x9;&lt;/span&gt;&lt;span style=&quot;white-space: pre;&quot;&gt;&#x9;&lt;/span&gt;&lt;span style=&quot;white-space: pre;&quot;&gt;&#x9;&lt;/span&gt;&lt;span style=&quot;white-space: pre;&quot;&gt;&#x9;&lt;/span&gt;// group：流控引脚组&lt;/span&gt;" style="text;html=1;align=left;verticalAlign=middle;whiteSpace=wrap;rounded=0;dashed=1;fontSize=14;fillColor=#e1d5e7;strokeColor=none;" vertex="1" parent="1">
          <mxGeometry x="220" y="410" width="820" height="20" as="geometry" />
        </mxCell>
        <mxCell id="EzJvQKpD51RxZactWaan-5" value="&lt;span style=&quot;font-size: 16px;&quot;&gt;&lt;span style=&quot;white-space: pre;&quot;&gt;&#x9;&lt;span style=&quot;white-space: pre;&quot;&gt;&#x9;&lt;span style=&quot;white-space: pre;&quot;&gt;&#x9;&lt;/span&gt;&lt;/span&gt;&lt;/span&gt;rockchip,pins = &amp;lt;1 RK_PB1 1 &amp;amp;pcfg_pull_none&amp;gt;;&lt;/span&gt;" style="text;html=1;align=left;verticalAlign=middle;whiteSpace=wrap;rounded=0;dashed=1;fontSize=14;fillColor=#e1d5e7;strokeColor=none;" vertex="1" parent="1">
          <mxGeometry x="220" y="430" width="820" height="20" as="geometry" />
        </mxCell>
        <mxCell id="EzJvQKpD51RxZactWaan-6" value="&lt;span style=&quot;font-size: 16px;&quot;&gt;&lt;span style=&quot;white-space: pre;&quot;&gt;&#x9;&lt;span style=&quot;white-space: pre;&quot;&gt;&#x9;&lt;/span&gt;&lt;/span&gt;};&lt;/span&gt;" style="text;html=1;align=left;verticalAlign=middle;whiteSpace=wrap;rounded=0;dashed=1;fontSize=14;fillColor=#e1d5e7;strokeColor=none;" vertex="1" parent="1">
          <mxGeometry x="220" y="450" width="820" height="20" as="geometry" />
        </mxCell>
        <mxCell id="EzJvQKpD51RxZactWaan-7" value="&lt;span style=&quot;font-size: 16px;&quot;&gt;&lt;span style=&quot;white-space: pre;&quot;&gt;&#x9;&lt;/span&gt;};&lt;/span&gt;" style="text;html=1;align=left;verticalAlign=middle;whiteSpace=wrap;rounded=0;dashed=1;fontSize=14;fillColor=#e1d5e7;strokeColor=none;" vertex="1" parent="1">
          <mxGeometry x="220" y="470" width="820" height="20" as="geometry" />
        </mxCell>
        <mxCell id="EzJvQKpD51RxZactWaan-8" value="&lt;span style=&quot;font-size: 16px;&quot;&gt;&lt;span style=&quot;white-space: pre;&quot;&gt;&#x9;&lt;/span&gt;pcfg_pull_up: pcfg-pull-up { bias-pull-up; };&amp;nbsp; &amp;nbsp; &amp;nbsp;&lt;span style=&quot;white-space: pre;&quot;&gt;&#x9;&lt;/span&gt;&lt;span style=&quot;white-space: pre;&quot;&gt;&#x9;&lt;/span&gt;&lt;span style=&quot;white-space: pre;&quot;&gt;&#x9;&lt;/span&gt;&lt;span style=&quot;white-space: pre;&quot;&gt;&#x9;&lt;/span&gt;&lt;span style=&quot;white-space: pre;&quot;&gt;&#x9;&lt;/span&gt;// PINCONF：上拉配置&lt;/span&gt;" style="text;html=1;align=left;verticalAlign=middle;whiteSpace=wrap;rounded=0;dashed=1;fontSize=14;" vertex="1" parent="1">
          <mxGeometry x="220" y="490" width="820" height="20" as="geometry" />
        </mxCell>
        <mxCell id="EzJvQKpD51RxZactWaan-9" value="&lt;span style=&quot;font-size: 16px;&quot;&gt;&lt;span style=&quot;white-space: pre;&quot;&gt;&#x9;&lt;/span&gt;pcfg_pull_none: pcfg-pull-none { bias-disable; }; &lt;span style=&quot;white-space: pre;&quot;&gt;&#x9;&lt;/span&gt;&lt;span style=&quot;white-space: pre;&quot;&gt;&#x9;&lt;/span&gt;&lt;span style=&quot;white-space: pre;&quot;&gt;&#x9;&lt;/span&gt;&lt;span style=&quot;white-space: pre;&quot;&gt;&#x9;&lt;/span&gt;&lt;span style=&quot;white-space: pre;&quot;&gt;&#x9;&lt;/span&gt;// PINCONF：无拉配置&lt;/span&gt;" style="text;html=1;align=left;verticalAlign=middle;whiteSpace=wrap;rounded=0;dashed=1;fontSize=14;" vertex="1" parent="1">
          <mxGeometry x="220" y="510" width="820" height="20" as="geometry" />
        </mxCell>
        <mxCell id="EzJvQKpD51RxZactWaan-10" value="&lt;span style=&quot;font-size: 16px;&quot;&gt;};&lt;/span&gt;" style="text;html=1;align=left;verticalAlign=middle;whiteSpace=wrap;rounded=0;dashed=1;fontSize=14;" vertex="1" parent="1">
          <mxGeometry x="220" y="530" width="820" height="20" as="geometry" />
        </mxCell>
        <mxCell id="EzJvQKpD51RxZactWaan-12" value="&lt;span style=&quot;font-size: 16px;&quot;&gt;// GPIO控制器节点&lt;/span&gt;" style="text;html=1;align=left;verticalAlign=middle;whiteSpace=wrap;rounded=0;dashed=1;fontSize=14;" vertex="1" parent="1">
          <mxGeometry x="220" y="570" width="820" height="20" as="geometry" />
        </mxCell>
        <mxCell id="EzJvQKpD51RxZactWaan-13" value="&lt;span style=&quot;font-size: 16px;&quot;&gt;gpio1: gpio@fe740000 {&lt;/span&gt;" style="text;html=1;align=left;verticalAlign=middle;whiteSpace=wrap;rounded=0;dashed=1;fontSize=14;" vertex="1" parent="1">
          <mxGeometry x="220" y="590" width="820" height="20" as="geometry" />
        </mxCell>
        <mxCell id="EzJvQKpD51RxZactWaan-14" value="&lt;span style=&quot;font-size: 16px;&quot;&gt;&lt;span style=&quot;white-space: pre;&quot;&gt;&#x9;&lt;/span&gt;compatible = &quot;rockchip,rk3568-gpio&quot;;&lt;/span&gt;" style="text;html=1;align=left;verticalAlign=middle;whiteSpace=wrap;rounded=0;dashed=1;fontSize=14;" vertex="1" parent="1">
          <mxGeometry x="220" y="610" width="820" height="20" as="geometry" />
        </mxCell>
        <mxCell id="EzJvQKpD51RxZactWaan-15" value="&lt;span style=&quot;font-size: 16px;&quot;&gt;&lt;span style=&quot;white-space: pre;&quot;&gt;&#x9;&lt;/span&gt;reg = &amp;lt;0x0 0xfe740000 0x0 0x100&amp;gt;;&lt;/span&gt;" style="text;html=1;align=left;verticalAlign=middle;whiteSpace=wrap;rounded=0;dashed=1;fontSize=14;" vertex="1" parent="1">
          <mxGeometry x="220" y="630" width="820" height="20" as="geometry" />
        </mxCell>
        <mxCell id="EzJvQKpD51RxZactWaan-16" value="&lt;span style=&quot;font-size: 16px;&quot;&gt;&lt;span style=&quot;white-space: pre;&quot;&gt;&#x9;&lt;/span&gt;gpio-controller;&amp;nbsp; &amp;nbsp; &amp;nbsp; &amp;nbsp; &amp;nbsp; &amp;nbsp; &amp;nbsp; &amp;nbsp; &amp;nbsp; &amp;nbsp; &amp;nbsp; &amp;nbsp; &amp;nbsp; &amp;nbsp; &amp;nbsp; &amp;nbsp; &amp;nbsp; &lt;span style=&quot;white-space: pre;&quot;&gt;&#x9;&lt;/span&gt;&lt;span style=&quot;white-space: pre;&quot;&gt;&#x9;&lt;/span&gt;&lt;span style=&quot;white-space: pre;&quot;&gt;&#x9;&lt;/span&gt;&lt;span style=&quot;white-space: pre;&quot;&gt;&#x9;&lt;/span&gt;&lt;span style=&quot;white-space: pre;&quot;&gt;&#x9;&lt;/span&gt;&lt;span style=&quot;white-space: pre;&quot;&gt;&#x9;&lt;/span&gt;&lt;span style=&quot;white-space: pre;&quot;&gt;&#x9;&lt;/span&gt;// 身份标识：GPIO控制器&lt;/span&gt;" style="text;html=1;align=left;verticalAlign=middle;whiteSpace=wrap;rounded=0;dashed=1;fontSize=14;fillColor=#d5e8d4;strokeColor=none;" vertex="1" parent="1">
          <mxGeometry x="220" y="650" width="820" height="20" as="geometry" />
        </mxCell>
        <mxCell id="EzJvQKpD51RxZactWaan-17" value="&lt;span style=&quot;font-size: 16px;&quot;&gt;&lt;span style=&quot;white-space: pre;&quot;&gt;&#x9;&lt;/span&gt;#gpio-cells = &amp;lt;2&amp;gt;;&amp;nbsp; &amp;nbsp; &amp;nbsp; &amp;nbsp; &amp;nbsp; &amp;nbsp; &amp;nbsp; &amp;nbsp; &amp;nbsp; &amp;nbsp; &amp;nbsp; &amp;nbsp; &amp;nbsp; &amp;nbsp; &amp;nbsp; &amp;nbsp; &lt;span style=&quot;white-space: pre;&quot;&gt;&#x9;&lt;/span&gt;&lt;span style=&quot;white-space: pre;&quot;&gt;&#x9;&lt;/span&gt;&lt;span style=&quot;white-space: pre;&quot;&gt;&#x9;&lt;/span&gt;&lt;span style=&quot;white-space: pre;&quot;&gt;&#x9;&lt;/span&gt;&lt;span style=&quot;white-space: pre;&quot;&gt;&#x9;&lt;/span&gt;&lt;span style=&quot;white-space: pre;&quot;&gt;&#x9;&lt;/span&gt;&lt;span style=&quot;white-space: pre;&quot;&gt;&#x9;&lt;/span&gt;// 参数个数：每个GPIO用2个参数&lt;/span&gt;" style="text;html=1;align=left;verticalAlign=middle;whiteSpace=wrap;rounded=0;dashed=1;fontSize=14;fillColor=#ffe6cc;strokeColor=none;" vertex="1" parent="1">
          <mxGeometry x="220" y="670" width="820" height="20" as="geometry" />
        </mxCell>
        <mxCell id="EzJvQKpD51RxZactWaan-54" style="edgeStyle=orthogonalEdgeStyle;rounded=0;orthogonalLoop=1;jettySize=auto;html=1;entryX=0;entryY=0.5;entryDx=0;entryDy=0;fillColor=#fff2cc;strokeColor=#d6b656;dashed=1;strokeWidth=2;" edge="1" parent="1" source="EzJvQKpD51RxZactWaan-18" target="EzJvQKpD51RxZactWaan-53">
          <mxGeometry relative="1" as="geometry" />
        </mxCell>
        <mxCell id="EzJvQKpD51RxZactWaan-18" value="&lt;span style=&quot;font-size: 16px;&quot;&gt;&lt;span style=&quot;white-space: pre;&quot;&gt;&#x9;&lt;/span&gt;gpio-ranges = &amp;lt;&amp;amp;pinctrl 0 0 32&amp;gt;;&amp;nbsp; &amp;nbsp; &amp;nbsp; &amp;nbsp; &amp;nbsp; &amp;nbsp; &amp;nbsp; &amp;nbsp; &amp;nbsp; &lt;span style=&quot;white-space: pre;&quot;&gt;&#x9;&lt;/span&gt;&lt;span style=&quot;white-space: pre;&quot;&gt;&#x9;&lt;/span&gt;&lt;span style=&quot;white-space: pre;&quot;&gt;&#x9;&lt;/span&gt;&lt;span style=&quot;white-space: pre;&quot;&gt;&#x9;&lt;/span&gt;&lt;span style=&quot;white-space: pre;&quot;&gt;&#x9;&lt;/span&gt;&lt;span style=&quot;white-space: pre;&quot;&gt;&#x9;&lt;/span&gt;// 引脚映射：32个引脚映射到pinctrl&lt;/span&gt;" style="text;html=1;align=left;verticalAlign=middle;whiteSpace=wrap;rounded=0;dashed=1;fontSize=14;fillColor=#fff2cc;strokeColor=none;" vertex="1" parent="1">
          <mxGeometry x="220" y="690" width="820" height="20" as="geometry" />
        </mxCell>
        <mxCell id="EzJvQKpD51RxZactWaan-19" value="&lt;span style=&quot;font-size: 16px;&quot;&gt;};&lt;/span&gt;" style="text;html=1;align=left;verticalAlign=middle;whiteSpace=wrap;rounded=0;dashed=1;fontSize=14;" vertex="1" parent="1">
          <mxGeometry x="220" y="710" width="820" height="20" as="geometry" />
        </mxCell>
        <mxCell id="EzJvQKpD51RxZactWaan-21" value="&lt;span style=&quot;font-size: 16px;&quot;&gt;// 使用pinctrl的设备：UART2&lt;/span&gt;" style="text;html=1;align=left;verticalAlign=middle;whiteSpace=wrap;rounded=0;dashed=1;fontSize=14;" vertex="1" parent="1">
          <mxGeometry x="220" y="750" width="820" height="20" as="geometry" />
        </mxCell>
        <mxCell id="EzJvQKpD51RxZactWaan-22" value="&lt;span style=&quot;font-size: 16px;&quot;&gt;uart2: serial@fe660000 {&lt;/span&gt;" style="text;html=1;align=left;verticalAlign=middle;whiteSpace=wrap;rounded=0;dashed=1;fontSize=14;" vertex="1" parent="1">
          <mxGeometry x="220" y="770" width="820" height="20" as="geometry" />
        </mxCell>
        <mxCell id="EzJvQKpD51RxZactWaan-23" value="&lt;span style=&quot;font-size: 16px;&quot;&gt;&lt;span style=&quot;white-space: pre;&quot;&gt;&#x9;&lt;/span&gt;compatible = &quot;rockchip,rk3568-uart&quot;;&lt;/span&gt;" style="text;html=1;align=left;verticalAlign=middle;whiteSpace=wrap;rounded=0;dashed=1;fontSize=14;" vertex="1" parent="1">
          <mxGeometry x="220" y="790" width="820" height="20" as="geometry" />
        </mxCell>
        <mxCell id="EzJvQKpD51RxZactWaan-24" value="&lt;span style=&quot;font-size: 16px;&quot;&gt;&lt;span style=&quot;white-space: pre;&quot;&gt;&#x9;&lt;/span&gt;reg = &amp;lt;0x0 0xfe660000 0x0 0x100&amp;gt;;&lt;/span&gt;" style="text;html=1;align=left;verticalAlign=middle;whiteSpace=wrap;rounded=0;dashed=1;fontSize=14;" vertex="1" parent="1">
          <mxGeometry x="220" y="810" width="820" height="20" as="geometry" />
        </mxCell>
        <mxCell id="EzJvQKpD51RxZactWaan-25" value="&lt;span style=&quot;font-size: 16px;&quot;&gt;&lt;span style=&quot;white-space: pre;&quot;&gt;&#x9;&lt;/span&gt;pinctrl-names = &quot;default&quot;;&amp;nbsp; &amp;nbsp; &amp;nbsp; &amp;nbsp; &amp;nbsp; &amp;nbsp; &amp;nbsp; &amp;nbsp; &amp;nbsp; &amp;nbsp; &amp;nbsp; &amp;nbsp; &lt;span style=&quot;white-space: pre;&quot;&gt;&#x9;&lt;/span&gt;&lt;span style=&quot;white-space: pre;&quot;&gt;&#x9;&lt;/span&gt;&lt;span style=&quot;white-space: pre;&quot;&gt;&#x9;&lt;/span&gt;&lt;span style=&quot;white-space: pre;&quot;&gt;&#x9;&lt;/span&gt;&lt;span style=&quot;white-space: pre;&quot;&gt;&#x9;&lt;/span&gt;&lt;span style=&quot;white-space: pre;&quot;&gt;&#x9;&lt;/span&gt;// 状态名称：默认状态&lt;/span&gt;" style="text;html=1;align=left;verticalAlign=middle;whiteSpace=wrap;rounded=0;dashed=1;fontSize=14;fillColor=#ffff88;strokeColor=none;" vertex="1" parent="1">
          <mxGeometry x="220" y="830" width="820" height="20" as="geometry" />
        </mxCell>
        <mxCell id="EzJvQKpD51RxZactWaan-26" value="&lt;span style=&quot;font-size: 16px;&quot;&gt;&lt;span style=&quot;white-space: pre;&quot;&gt;&#x9;&lt;/span&gt;pinctrl-0 = &amp;lt;&amp;amp;uart2m0_xfer &amp;amp;uart2m0_ctsn&amp;gt;;&amp;nbsp; &amp;nbsp; &amp;nbsp; &amp;nbsp;&lt;span style=&quot;white-space: pre;&quot;&gt;&#x9;&lt;/span&gt;&lt;span style=&quot;white-space: pre;&quot;&gt;&#x9;&lt;/span&gt;&lt;span style=&quot;white-space: pre;&quot;&gt;&#x9;&lt;/span&gt;&lt;span style=&quot;white-space: pre;&quot;&gt;&#x9;&lt;/span&gt;&lt;span style=&quot;white-space: pre;&quot;&gt;&#x9;&lt;/span&gt;// 多组引用：收发+流控引脚组&lt;/span&gt;" style="text;html=1;align=left;verticalAlign=middle;whiteSpace=wrap;rounded=0;dashed=1;fontSize=14;fillColor=#cdeb8b;strokeColor=none;" vertex="1" parent="1">
          <mxGeometry x="220" y="850" width="820" height="20" as="geometry" />
        </mxCell>
        <mxCell id="EzJvQKpD51RxZactWaan-27" value="&lt;span style=&quot;font-size: 16px;&quot;&gt;};&lt;/span&gt;" style="text;html=1;align=left;verticalAlign=middle;whiteSpace=wrap;rounded=0;dashed=1;fontSize=14;" vertex="1" parent="1">
          <mxGeometry x="220" y="870" width="820" height="20" as="geometry" />
        </mxCell>
        <mxCell id="EzJvQKpD51RxZactWaan-29" value="&lt;span style=&quot;font-size: 16px;&quot;&gt;// 使用GPIO的设备：LED&lt;/span&gt;" style="text;html=1;align=left;verticalAlign=middle;whiteSpace=wrap;rounded=0;dashed=1;fontSize=14;" vertex="1" parent="1">
          <mxGeometry x="220" y="910" width="820" height="20" as="geometry" />
        </mxCell>
        <mxCell id="EzJvQKpD51RxZactWaan-30" value="&lt;span style=&quot;font-size: 16px;&quot;&gt;leds {&lt;/span&gt;" style="text;html=1;align=left;verticalAlign=middle;whiteSpace=wrap;rounded=0;dashed=1;fontSize=14;" vertex="1" parent="1">
          <mxGeometry x="220" y="930" width="820" height="20" as="geometry" />
        </mxCell>
        <mxCell id="EzJvQKpD51RxZactWaan-31" value="&lt;span style=&quot;font-size: 16px;&quot;&gt;&lt;span style=&quot;white-space: pre;&quot;&gt;&#x9;&lt;/span&gt;compatible = &quot;gpio-leds&quot;;&lt;/span&gt;" style="text;html=1;align=left;verticalAlign=middle;whiteSpace=wrap;rounded=0;dashed=1;fontSize=14;" vertex="1" parent="1">
          <mxGeometry x="220" y="950" width="820" height="20" as="geometry" />
        </mxCell>
        <mxCell id="EzJvQKpD51RxZactWaan-32" value="&lt;span style=&quot;font-size: 16px;&quot;&gt;&lt;span style=&quot;white-space: pre;&quot;&gt;&#x9;&lt;/span&gt;power_led {&lt;/span&gt;" style="text;html=1;align=left;verticalAlign=middle;whiteSpace=wrap;rounded=0;dashed=1;fontSize=14;" vertex="1" parent="1">
          <mxGeometry x="220" y="970" width="820" height="20" as="geometry" />
        </mxCell>
        <mxCell id="EzJvQKpD51RxZactWaan-33" value="&lt;span style=&quot;font-size: 16px;&quot;&gt;&lt;span style=&quot;white-space: pre;&quot;&gt;&#x9;&lt;/span&gt;&lt;span style=&quot;white-space: pre;&quot;&gt;&#x9;&lt;/span&gt;label = &quot;power&quot;;&lt;/span&gt;" style="text;html=1;align=left;verticalAlign=middle;whiteSpace=wrap;rounded=0;dashed=1;fontSize=14;" vertex="1" parent="1">
          <mxGeometry x="220" y="990" width="820" height="20" as="geometry" />
        </mxCell>
        <mxCell id="EzJvQKpD51RxZactWaan-58" style="edgeStyle=orthogonalEdgeStyle;rounded=0;orthogonalLoop=1;jettySize=auto;html=1;entryX=0;entryY=0.5;entryDx=0;entryDy=0;fillColor=#f8cecc;strokeColor=#b85450;strokeWidth=2;dashed=1;" edge="1" parent="1" source="EzJvQKpD51RxZactWaan-34" target="EzJvQKpD51RxZactWaan-57">
          <mxGeometry relative="1" as="geometry" />
        </mxCell>
        <mxCell id="EzJvQKpD51RxZactWaan-34" value="&lt;span style=&quot;font-size: 16px;&quot;&gt;&lt;span style=&quot;white-space: pre;&quot;&gt;&#x9;&lt;/span&gt;&lt;span style=&quot;white-space: pre;&quot;&gt;&#x9;&lt;/span&gt;gpios = &amp;lt;&amp;amp;gpio1 RK_PC0 GPIO_ACTIVE_HIGH&amp;gt;;&amp;nbsp; &amp;nbsp; &amp;nbsp;&lt;span style=&quot;white-space: pre;&quot;&gt;&#x9;&lt;/span&gt;&lt;span style=&quot;white-space: pre;&quot;&gt;&#x9;&lt;/span&gt;&lt;span style=&quot;white-space: pre;&quot;&gt;&#x9;&lt;/span&gt;// GPIO引脚描述：RK_PC0高电平有效&lt;/span&gt;" style="text;html=1;align=left;verticalAlign=middle;whiteSpace=wrap;rounded=0;dashed=1;fontSize=14;fillColor=#f8cecc;strokeColor=none;" vertex="1" parent="1">
          <mxGeometry x="220" y="1010" width="820" height="20" as="geometry" />
        </mxCell>
        <mxCell id="EzJvQKpD51RxZactWaan-35" value="&lt;span style=&quot;font-size: 16px;&quot;&gt;&lt;span style=&quot;white-space: pre;&quot;&gt;&#x9;&lt;/span&gt;};&lt;/span&gt;" style="text;html=1;align=left;verticalAlign=middle;whiteSpace=wrap;rounded=0;dashed=1;fontSize=14;" vertex="1" parent="1">
          <mxGeometry x="220" y="1030" width="820" height="20" as="geometry" />
        </mxCell>
        <mxCell id="EzJvQKpD51RxZactWaan-36" value="&lt;span style=&quot;font-size: 16px;&quot;&gt;&lt;span style=&quot;white-space: pre;&quot;&gt;&#x9;&lt;/span&gt;status_led {&lt;/span&gt;" style="text;html=1;align=left;verticalAlign=middle;whiteSpace=wrap;rounded=0;dashed=1;fontSize=14;" vertex="1" parent="1">
          <mxGeometry x="220" y="1050" width="820" height="20" as="geometry" />
        </mxCell>
        <mxCell id="EzJvQKpD51RxZactWaan-37" value="&lt;span style=&quot;font-size: 16px;&quot;&gt;&lt;span style=&quot;white-space: pre;&quot;&gt;&#x9;&lt;/span&gt;&lt;span style=&quot;white-space: pre;&quot;&gt;&#x9;&lt;/span&gt;label = &quot;status&quot;;&lt;/span&gt;" style="text;html=1;align=left;verticalAlign=middle;whiteSpace=wrap;rounded=0;dashed=1;fontSize=14;" vertex="1" parent="1">
          <mxGeometry x="220" y="1070" width="820" height="20" as="geometry" />
        </mxCell>
        <mxCell id="EzJvQKpD51RxZactWaan-38" value="&lt;span style=&quot;font-size: 16px;&quot;&gt;&lt;span style=&quot;white-space: pre;&quot;&gt;&#x9;&lt;/span&gt;&lt;span style=&quot;white-space: pre;&quot;&gt;&#x9;&lt;/span&gt;gpios = &amp;lt;&amp;amp;gpio1 RK_PC4 GPIO_ACTIVE_LOW&amp;gt;;&amp;nbsp; &amp;nbsp; &amp;nbsp; &lt;span style=&quot;white-space: pre;&quot;&gt;&#x9;&lt;/span&gt;&lt;span style=&quot;white-space: pre;&quot;&gt;&#x9;&lt;/span&gt;&lt;span style=&quot;white-space: pre;&quot;&gt;&#x9;&lt;/span&gt;// GPIO引脚描述：RK_PC4低电平有效&lt;/span&gt;" style="text;html=1;align=left;verticalAlign=middle;whiteSpace=wrap;rounded=0;dashed=1;fontSize=14;" vertex="1" parent="1">
          <mxGeometry x="220" y="1090" width="820" height="20" as="geometry" />
        </mxCell>
        <mxCell id="EzJvQKpD51RxZactWaan-39" value="&lt;span style=&quot;font-size: 16px;&quot;&gt;&lt;span style=&quot;white-space: pre;&quot;&gt;&#x9;&lt;/span&gt;&lt;span style=&quot;white-space: pre;&quot;&gt;&#x9;&lt;/span&gt;pinctrl-names = &quot;active&quot;, &quot;sleep&quot;;&amp;nbsp; &amp;nbsp; &amp;nbsp; &amp;nbsp; &amp;nbsp; &amp;nbsp; // 多状态：活跃和休眠状态&lt;/span&gt;" style="text;html=1;align=left;verticalAlign=middle;whiteSpace=wrap;rounded=0;dashed=1;fontSize=14;" vertex="1" parent="1">
          <mxGeometry x="220" y="1110" width="820" height="20" as="geometry" />
        </mxCell>
        <mxCell id="EzJvQKpD51RxZactWaan-40" value="&lt;span style=&quot;font-size: 16px;&quot;&gt;&lt;span style=&quot;white-space: pre;&quot;&gt;&#x9;&lt;/span&gt;&lt;span style=&quot;white-space: pre;&quot;&gt;&#x9;&lt;/span&gt;pinctrl-0 = &amp;lt;&amp;amp;led_active_pins&amp;gt;;&amp;nbsp; &amp;nbsp; &amp;nbsp; &amp;nbsp; &amp;nbsp; &amp;nbsp; &amp;nbsp; &amp;nbsp;// 活跃状态引脚配置&lt;/span&gt;" style="text;html=1;align=left;verticalAlign=middle;whiteSpace=wrap;rounded=0;dashed=1;fontSize=14;" vertex="1" parent="1">
          <mxGeometry x="220" y="1130" width="820" height="20" as="geometry" />
        </mxCell>
        <mxCell id="EzJvQKpD51RxZactWaan-41" value="&lt;span style=&quot;font-size: 16px;&quot;&gt;&lt;span style=&quot;white-space: pre;&quot;&gt;&#x9;&lt;/span&gt;&lt;span style=&quot;white-space: pre;&quot;&gt;&#x9;&lt;/span&gt;pinctrl-1 = &amp;lt;&amp;amp;led_sleep_pins&amp;gt;;&amp;nbsp; &amp;nbsp; &amp;nbsp; &amp;nbsp; &amp;nbsp; &amp;nbsp; &amp;nbsp; &amp;nbsp; // 休眠状态引脚配置&lt;/span&gt;" style="text;html=1;align=left;verticalAlign=middle;whiteSpace=wrap;rounded=0;dashed=1;fontSize=14;" vertex="1" parent="1">
          <mxGeometry x="220" y="1150" width="820" height="20" as="geometry" />
        </mxCell>
        <mxCell id="EzJvQKpD51RxZactWaan-42" value="&lt;span style=&quot;font-size: 16px;&quot;&gt;&lt;span style=&quot;white-space: pre;&quot;&gt;&#x9;&lt;/span&gt;};&lt;/span&gt;" style="text;html=1;align=left;verticalAlign=middle;whiteSpace=wrap;rounded=0;dashed=1;fontSize=14;" vertex="1" parent="1">
          <mxGeometry x="220" y="1170" width="820" height="20" as="geometry" />
        </mxCell>
        <mxCell id="EzJvQKpD51RxZactWaan-43" value="&lt;span style=&quot;font-size: 16px;&quot;&gt;};&lt;/span&gt;" style="text;html=1;align=left;verticalAlign=middle;whiteSpace=wrap;rounded=0;dashed=1;fontSize=14;" vertex="1" parent="1">
          <mxGeometry x="220" y="1190" width="820" height="20" as="geometry" />
        </mxCell>
        <mxCell id="EzJvQKpD51RxZactWaan-50" style="edgeStyle=orthogonalEdgeStyle;rounded=0;orthogonalLoop=1;jettySize=auto;html=1;entryX=1;entryY=0.5;entryDx=0;entryDy=0;fillColor=#d5e8d4;strokeColor=#82b366;strokeWidth=2;curved=1;" edge="1" parent="1" source="UvsXHOnpaCu9hmhHPp6C-19" target="EzJvQKpD51RxZactWaan-16">
          <mxGeometry relative="1" as="geometry" />
        </mxCell>
        <mxCell id="EzJvQKpD51RxZactWaan-51" style="edgeStyle=orthogonalEdgeStyle;rounded=0;orthogonalLoop=1;jettySize=auto;html=1;entryX=1;entryY=0.5;entryDx=0;entryDy=0;fillColor=#ffe6cc;strokeColor=none;strokeWidth=2;curved=1;" edge="1" parent="1" source="UvsXHOnpaCu9hmhHPp6C-22" target="EzJvQKpD51RxZactWaan-17">
          <mxGeometry relative="1" as="geometry">
            <Array as="points">
              <mxPoint x="1090" y="340" />
              <mxPoint x="1090" y="690" />
            </Array>
          </mxGeometry>
        </mxCell>
        <mxCell id="EzJvQKpD51RxZactWaan-53" value="&lt;h1&gt;&lt;font style=&quot;font-size: 18px;&quot;&gt;&amp;amp;pinctrl：引用的引脚控制器节点&lt;br&gt;0&lt;/font&gt;&lt;span style=&quot;font-size: 18px; background-color: transparent; color: light-dark(rgb(0, 0, 0), rgb(255, 255, 255));&quot;&gt;：&lt;/span&gt;&lt;span style=&quot;font-size: 18px; background-color: transparent; color: light-dark(rgb(0, 0, 0), rgb(255, 255, 255));&quot;&gt;外部引脚从0开始&lt;br&gt;0：&lt;/span&gt;&lt;span style=&quot;font-size: 18px; background-color: transparent; color: light-dark(rgb(0, 0, 0), rgb(255, 255, 255));&quot;&gt;本地引脚从0开始&lt;br&gt;32：&lt;/span&gt;&lt;span style=&quot;font-size: 18px; background-color: transparent; color: light-dark(rgb(0, 0, 0), rgb(255, 255, 255));&quot;&gt;映射32个引脚&lt;/span&gt;&lt;/h1&gt;" style="rounded=0;whiteSpace=wrap;html=1;fillColor=#fff2cc;strokeColor=#d6b656;align=left;" vertex="1" parent="1">
          <mxGeometry x="1150" y="640" width="280" height="120" as="geometry" />
        </mxCell>
        <mxCell id="EzJvQKpD51RxZactWaan-57" value="&lt;h1&gt;&lt;span style=&quot;font-size: 18px;&quot;&gt;&amp;amp;gpio1：引用gpio1控制器&lt;br&gt;RK_PC0：RK引脚的宏定义，本质是引脚号&lt;br&gt;GPIO_ACTIVE_HIGH：高电平有效，宏定义&lt;/span&gt;&lt;/h1&gt;" style="rounded=0;whiteSpace=wrap;html=1;fillColor=#f8cecc;strokeColor=#b85450;align=left;" vertex="1" parent="1">
          <mxGeometry x="1160" y="967.75" width="380" height="104.5" as="geometry" />
        </mxCell>
        <mxCell id="EzJvQKpD51RxZactWaan-59" value="" style="shape=table;startSize=0;container=1;collapsible=0;childLayout=tableLayout;fixedRows=1;rowLines=0;fontStyle=0;strokeColor=#6c8ebf;fontSize=16;fillColor=none;" vertex="1" parent="1">
          <mxGeometry x="-300" y="257" width="450" height="343" as="geometry" />
        </mxCell>
        <mxCell id="EzJvQKpD51RxZactWaan-60" value="" style="shape=tableRow;horizontal=0;startSize=0;swimlaneHead=0;swimlaneBody=0;top=0;left=0;bottom=0;right=0;collapsible=0;dropTarget=0;fillColor=none;points=[[0,0.5],[1,0.5]];portConstraint=eastwest;strokeColor=inherit;fontSize=16;" vertex="1" parent="EzJvQKpD51RxZactWaan-59">
          <mxGeometry width="450" height="71" as="geometry" />
        </mxCell>
        <mxCell id="EzJvQKpD51RxZactWaan-61" value="&lt;span style=&quot;&quot;&gt;1、不是一个标准的platform_device&lt;br&gt;2、不直接管理寄存器，引用其他节点获取地址&lt;br&gt;3、最终的寄存器地址 = 基地址 + 偏移地址&lt;/span&gt;" style="shape=partialRectangle;html=1;whiteSpace=wrap;connectable=0;fillColor=none;top=0;left=0;bottom=0;right=0;overflow=hidden;pointerEvents=1;strokeColor=inherit;fontSize=16;align=left;" vertex="1" parent="EzJvQKpD51RxZactWaan-60">
          <mxGeometry width="370" height="71" as="geometry">
            <mxRectangle width="370" height="71" as="alternateBounds" />
          </mxGeometry>
        </mxCell>
        <mxCell id="EzJvQKpD51RxZactWaan-62" value="&lt;b&gt;&lt;font style=&quot;&quot;&gt;没有reg&lt;br&gt;而是引用&lt;/font&gt;&lt;/b&gt;" style="shape=partialRectangle;html=1;whiteSpace=wrap;connectable=0;fillColor=#f5f5f5;top=0;left=0;bottom=0;right=0;align=center;spacingLeft=6;overflow=hidden;strokeColor=#666666;fontSize=16;fontColor=#333333;" vertex="1" parent="EzJvQKpD51RxZactWaan-60">
          <mxGeometry x="370" width="80" height="71" as="geometry">
            <mxRectangle width="80" height="71" as="alternateBounds" />
          </mxGeometry>
        </mxCell>
        <mxCell id="EzJvQKpD51RxZactWaan-63" value="" style="shape=tableRow;horizontal=0;startSize=0;swimlaneHead=0;swimlaneBody=0;top=0;left=0;bottom=0;right=0;collapsible=0;dropTarget=0;fillColor=none;points=[[0,0.5],[1,0.5]];portConstraint=eastwest;strokeColor=inherit;fontSize=16;" vertex="1" parent="EzJvQKpD51RxZactWaan-59">
          <mxGeometry y="71" width="450" height="52" as="geometry" />
        </mxCell>
        <mxCell id="EzJvQKpD51RxZactWaan-64" value="&lt;div style=&quot;&quot;&gt;1、只能在pinctrl节点下添加&lt;br&gt;2、命名格式为 function + group&lt;br&gt;&lt;/div&gt;" style="shape=partialRectangle;html=1;whiteSpace=wrap;connectable=0;fillColor=none;top=0;left=0;bottom=0;right=0;overflow=hidden;pointerEvents=1;strokeColor=inherit;fontSize=16;align=left;" vertex="1" parent="EzJvQKpD51RxZactWaan-63">
          <mxGeometry width="370" height="52" as="geometry">
            <mxRectangle width="370" height="52" as="alternateBounds" />
          </mxGeometry>
        </mxCell>
        <mxCell id="EzJvQKpD51RxZactWaan-65" value="&lt;b&gt;如何配置&lt;/b&gt;" style="shape=partialRectangle;html=1;whiteSpace=wrap;connectable=0;fillColor=none;top=0;left=0;bottom=0;right=0;align=center;spacingLeft=6;overflow=hidden;strokeColor=inherit;fontSize=16;fontColor=light-dark(#000000,#FFFFFF);" vertex="1" parent="EzJvQKpD51RxZactWaan-63">
          <mxGeometry x="370" width="80" height="52" as="geometry">
            <mxRectangle width="80" height="52" as="alternateBounds" />
          </mxGeometry>
        </mxCell>
        <mxCell id="EzJvQKpD51RxZactWaan-83" value="" style="shape=tableRow;horizontal=0;startSize=0;swimlaneHead=0;swimlaneBody=0;top=0;left=0;bottom=0;right=0;collapsible=0;dropTarget=0;fillColor=none;points=[[0,0.5],[1,0.5]];portConstraint=eastwest;strokeColor=inherit;fontSize=16;" vertex="1" parent="EzJvQKpD51RxZactWaan-59">
          <mxGeometry y="123" width="450" height="80" as="geometry" />
        </mxCell>
        <mxCell id="EzJvQKpD51RxZactWaan-84" value="&lt;div style=&quot;&quot;&gt;1、&lt;b&gt;IOMUX&lt;/b&gt;:引脚多功能复用，即可切换引脚功能&lt;br&gt;2、&lt;b&gt;PINCONF&lt;/b&gt;：引脚电气属性及行为配置&lt;br&gt;3、&lt;b&gt;CPIO&lt;/b&gt;：使用单独的 gpio 节点的 reg地址&lt;/div&gt;" style="shape=partialRectangle;html=1;whiteSpace=wrap;connectable=0;fillColor=none;top=0;left=0;bottom=0;right=0;overflow=hidden;pointerEvents=1;strokeColor=inherit;fontSize=16;align=left;" vertex="1" parent="EzJvQKpD51RxZactWaan-83">
          <mxGeometry width="370" height="80" as="geometry">
            <mxRectangle width="370" height="80" as="alternateBounds" />
          </mxGeometry>
        </mxCell>
        <mxCell id="EzJvQKpD51RxZactWaan-85" value="&lt;b&gt;可配置&lt;br&gt;类型&lt;/b&gt;" style="shape=partialRectangle;html=1;whiteSpace=wrap;connectable=0;fillColor=none;top=0;left=0;bottom=0;right=0;align=center;spacingLeft=6;overflow=hidden;strokeColor=inherit;fontSize=16;fontColor=light-dark(#000000,#FFFFFF);" vertex="1" parent="EzJvQKpD51RxZactWaan-83">
          <mxGeometry x="370" width="80" height="80" as="geometry">
            <mxRectangle width="80" height="80" as="alternateBounds" />
          </mxGeometry>
        </mxCell>
        <mxCell id="EzJvQKpD51RxZactWaan-86" value="" style="shape=tableRow;horizontal=0;startSize=0;swimlaneHead=0;swimlaneBody=0;top=0;left=0;bottom=0;right=0;collapsible=0;dropTarget=0;fillColor=none;points=[[0,0.5],[1,0.5]];portConstraint=eastwest;strokeColor=inherit;fontSize=16;" vertex="1" parent="EzJvQKpD51RxZactWaan-59">
          <mxGeometry y="203" width="450" height="140" as="geometry" />
        </mxCell>
        <mxCell id="EzJvQKpD51RxZactWaan-87" value="&lt;span style=&quot;&quot;&gt;&lt;b&gt;function &lt;/b&gt;{&lt;br&gt;&lt;span style=&quot;white-space: pre;&quot;&gt;&#x9;&lt;/span&gt;&lt;b&gt;group &lt;/b&gt;{&lt;br&gt;&lt;span style=&quot;white-space: pre;&quot;&gt;&#x9;&lt;/span&gt;&lt;span style=&quot;white-space: pre;&quot;&gt;&#x9;&lt;/span&gt;&lt;b&gt;rockchip,pin&lt;/b&gt; = &amp;lt;&lt;b&gt;bank gpio func &amp;amp;ref&lt;/b&gt;&amp;gt;&lt;br&gt;&lt;span style=&quot;white-space: pre;&quot;&gt;&#x9;&lt;/span&gt;}&lt;br&gt;&lt;/span&gt;&lt;div&gt;&lt;div&gt;&lt;span style=&quot;&quot;&gt;}&lt;br&gt;&lt;/span&gt;&lt;b style=&quot;text-align: center;&quot;&gt;Tips：不同芯片，不一样&lt;/b&gt;&lt;span style=&quot;&quot;&gt;&lt;/span&gt;&lt;/div&gt;&lt;/div&gt;" style="shape=partialRectangle;html=1;whiteSpace=wrap;connectable=0;fillColor=#e1d5e7;top=0;left=0;bottom=0;right=0;overflow=hidden;pointerEvents=1;strokeColor=inherit;fontSize=16;align=left;" vertex="1" parent="EzJvQKpD51RxZactWaan-86">
          <mxGeometry width="370" height="140" as="geometry">
            <mxRectangle width="370" height="140" as="alternateBounds" />
          </mxGeometry>
        </mxCell>
        <mxCell id="EzJvQKpD51RxZactWaan-88" value="&lt;b&gt;&lt;font style=&quot;&quot;&gt;代码格式&lt;br&gt;&lt;/font&gt;&lt;/b&gt;" style="shape=partialRectangle;html=1;whiteSpace=wrap;connectable=0;fillColor=#e1d5e7;top=0;left=0;bottom=0;right=0;align=center;spacingLeft=6;overflow=hidden;strokeColor=#9673a6;fontSize=16;" vertex="1" parent="EzJvQKpD51RxZactWaan-86">
          <mxGeometry x="370" width="80" height="140" as="geometry">
            <mxRectangle width="80" height="140" as="alternateBounds" />
          </mxGeometry>
        </mxCell>
        <mxCell id="EzJvQKpD51RxZactWaan-78" value="&lt;h1&gt;&lt;font style=&quot;&quot;&gt;&lt;span style=&quot;font-size: 20px;&quot;&gt;pinctrl定义描述&lt;/span&gt;&lt;br&gt;&lt;/font&gt;&lt;/h1&gt;" style="rounded=0;whiteSpace=wrap;html=1;fillColor=#dae8fc;strokeColor=#6c8ebf;" vertex="1" parent="1">
          <mxGeometry x="-300" y="228" width="450" height="29" as="geometry" />
        </mxCell>
        <mxCell id="EzJvQKpD51RxZactWaan-79" style="edgeStyle=orthogonalEdgeStyle;rounded=0;orthogonalLoop=1;jettySize=auto;html=1;strokeWidth=2;curved=1;fillColor=#f5f5f5;strokeColor=#666666;" edge="1" parent="1" source="EzJvQKpD51RxZactWaan-60" target="UvsXHOnpaCu9hmhHPp6C-4">
          <mxGeometry relative="1" as="geometry" />
        </mxCell>
        <mxCell id="EzJvQKpD51RxZactWaan-95" value="&lt;span style=&quot;font-size: 18px;&quot;&gt;rockchip,pin&lt;/span&gt;" style="swimlane;fontStyle=1;align=center;verticalAlign=top;childLayout=stackLayout;horizontal=1;startSize=30;horizontalStack=0;resizeParent=1;resizeParentMax=0;resizeLast=0;collapsible=1;marginBottom=0;whiteSpace=wrap;html=1;fillColor=#e1d5e7;strokeColor=#9673a6;" vertex="1" parent="1">
          <mxGeometry x="-325" y="630" width="500" height="160" as="geometry" />
        </mxCell>
        <mxCell id="EzJvQKpD51RxZactWaan-100" value="&lt;span style=&quot;font-size: 16px;&quot;&gt;概念：rk芯片&lt;/span&gt;&lt;font style=&quot;font-size: 14px;&quot;&gt;IOMUX和GPIO分离，需要bank+pin+func的层级结构&lt;/font&gt;" style="text;strokeColor=none;fillColor=none;align=left;verticalAlign=top;spacingLeft=4;spacingRight=4;overflow=hidden;rotatable=0;points=[[0,0.5],[1,0.5]];portConstraint=eastwest;whiteSpace=wrap;html=1;" vertex="1" parent="EzJvQKpD51RxZactWaan-95">
          <mxGeometry y="30" width="500" height="26" as="geometry" />
        </mxCell>
        <mxCell id="EzJvQKpD51RxZactWaan-101" value="&lt;span style=&quot;font-size: 16px;&quot;&gt;&lt;b&gt;bank：&lt;/b&gt;gpio组编号，即指定GPIO控制器编号，1表示gpio1-controller&lt;/span&gt;" style="text;strokeColor=none;fillColor=none;align=left;verticalAlign=top;spacingLeft=4;spacingRight=4;overflow=hidden;rotatable=0;points=[[0,0.5],[1,0.5]];portConstraint=eastwest;whiteSpace=wrap;html=1;" vertex="1" parent="EzJvQKpD51RxZactWaan-95">
          <mxGeometry y="56" width="500" height="26" as="geometry" />
        </mxCell>
        <mxCell id="EzJvQKpD51RxZactWaan-102" value="&lt;span style=&quot;font-size: 16px;&quot;&gt;&lt;b&gt;gpio：&lt;/b&gt;bank内的具体引脚编号，宏定义，RK_PB0表示B组第0个引脚&lt;/span&gt;" style="text;strokeColor=none;fillColor=none;align=left;verticalAlign=top;spacingLeft=4;spacingRight=4;overflow=hidden;rotatable=0;points=[[0,0.5],[1,0.5]];portConstraint=eastwest;whiteSpace=wrap;html=1;" vertex="1" parent="EzJvQKpD51RxZactWaan-95">
          <mxGeometry y="82" width="500" height="26" as="geometry" />
        </mxCell>
        <mxCell id="EzJvQKpD51RxZactWaan-103" value="&lt;span style=&quot;font-size: 16px;&quot;&gt;&lt;b&gt;func：&lt;/b&gt;指定引脚的复用功能，1表示uart功能&lt;/span&gt;" style="text;strokeColor=none;fillColor=none;align=left;verticalAlign=top;spacingLeft=4;spacingRight=4;overflow=hidden;rotatable=0;points=[[0,0.5],[1,0.5]];portConstraint=eastwest;whiteSpace=wrap;html=1;" vertex="1" parent="EzJvQKpD51RxZactWaan-95">
          <mxGeometry y="108" width="500" height="26" as="geometry" />
        </mxCell>
        <mxCell id="EzJvQKpD51RxZactWaan-104" value="&lt;span style=&quot;font-size: 16px;&quot;&gt;&lt;b&gt;&amp;amp;ref：&lt;/b&gt;引用PINCONF配置节点，定义引脚电气特性&lt;/span&gt;" style="text;strokeColor=none;fillColor=none;align=left;verticalAlign=top;spacingLeft=4;spacingRight=4;overflow=hidden;rotatable=0;points=[[0,0.5],[1,0.5]];portConstraint=eastwest;whiteSpace=wrap;html=1;" vertex="1" parent="EzJvQKpD51RxZactWaan-95">
          <mxGeometry y="134" width="500" height="26" as="geometry" />
        </mxCell>
        <mxCell id="EzJvQKpD51RxZactWaan-107" style="edgeStyle=orthogonalEdgeStyle;rounded=0;orthogonalLoop=1;jettySize=auto;html=1;entryX=0.001;entryY=0.094;entryDx=0;entryDy=0;entryPerimeter=0;fillColor=#e1d5e7;strokeColor=#9673a6;strokeWidth=2;dashed=1;" edge="1" parent="1" source="EzJvQKpD51RxZactWaan-86" target="EzJvQKpD51RxZactWaan-95">
          <mxGeometry relative="1" as="geometry">
            <mxPoint x="-332.85714285714283" y="710" as="targetPoint" />
            <Array as="points">
              <mxPoint x="-350" y="530" />
              <mxPoint x="-350" y="645" />
            </Array>
          </mxGeometry>
        </mxCell>
        <mxCell id="EzJvQKpD51RxZactWaan-108" value="" style="shape=table;startSize=0;container=1;collapsible=0;childLayout=tableLayout;fixedRows=1;rowLines=0;fontStyle=0;strokeColor=#6c8ebf;fontSize=16;fillColor=none;" vertex="1" parent="1">
          <mxGeometry x="-330" y="859" width="470" height="61" as="geometry" />
        </mxCell>
        <mxCell id="EzJvQKpD51RxZactWaan-109" value="" style="shape=tableRow;horizontal=0;startSize=0;swimlaneHead=0;swimlaneBody=0;top=0;left=0;bottom=0;right=0;collapsible=0;dropTarget=0;fillColor=none;points=[[0,0.5],[1,0.5]];portConstraint=eastwest;strokeColor=inherit;fontSize=16;" vertex="1" parent="EzJvQKpD51RxZactWaan-108">
          <mxGeometry width="470" height="31" as="geometry" />
        </mxCell>
        <mxCell id="EzJvQKpD51RxZactWaan-110" value="定义状态名称列表" style="shape=partialRectangle;html=1;whiteSpace=wrap;connectable=0;fillColor=none;top=0;left=0;bottom=0;right=0;overflow=hidden;pointerEvents=1;strokeColor=inherit;fontSize=16;align=left;" vertex="1" parent="EzJvQKpD51RxZactWaan-109">
          <mxGeometry width="334" height="31" as="geometry">
            <mxRectangle width="334" height="31" as="alternateBounds" />
          </mxGeometry>
        </mxCell>
        <mxCell id="EzJvQKpD51RxZactWaan-111" value="&lt;b&gt;pinctrl-names&lt;/b&gt;" style="shape=partialRectangle;html=1;whiteSpace=wrap;connectable=0;fillColor=#ffff88;top=0;left=0;bottom=0;right=0;align=center;spacingLeft=6;overflow=hidden;strokeColor=#36393d;fontSize=16;" vertex="1" parent="EzJvQKpD51RxZactWaan-109">
          <mxGeometry x="334" width="136" height="31" as="geometry">
            <mxRectangle width="136" height="31" as="alternateBounds" />
          </mxGeometry>
        </mxCell>
        <mxCell id="EzJvQKpD51RxZactWaan-112" value="" style="shape=tableRow;horizontal=0;startSize=0;swimlaneHead=0;swimlaneBody=0;top=0;left=0;bottom=0;right=0;collapsible=0;dropTarget=0;fillColor=none;points=[[0,0.5],[1,0.5]];portConstraint=eastwest;strokeColor=inherit;fontSize=16;" vertex="1" parent="EzJvQKpD51RxZactWaan-108">
          <mxGeometry y="31" width="470" height="30" as="geometry" />
        </mxCell>
        <mxCell id="EzJvQKpD51RxZactWaan-113" value="&lt;div style=&quot;&quot;&gt;定义各个状态下使用的引脚组，&lt;b&gt;索引关联状态&lt;/b&gt;&lt;/div&gt;" style="shape=partialRectangle;html=1;whiteSpace=wrap;connectable=0;fillColor=none;top=0;left=0;bottom=0;right=0;overflow=hidden;pointerEvents=1;strokeColor=inherit;fontSize=16;align=left;" vertex="1" parent="EzJvQKpD51RxZactWaan-112">
          <mxGeometry width="334" height="30" as="geometry">
            <mxRectangle width="334" height="30" as="alternateBounds" />
          </mxGeometry>
        </mxCell>
        <mxCell id="EzJvQKpD51RxZactWaan-114" value="&lt;b&gt;pinctrl-0&lt;/b&gt;" style="shape=partialRectangle;html=1;whiteSpace=wrap;connectable=0;fillColor=#cdeb8b;top=0;left=0;bottom=0;right=0;align=center;spacingLeft=6;overflow=hidden;strokeColor=#36393d;fontSize=16;" vertex="1" parent="EzJvQKpD51RxZactWaan-112">
          <mxGeometry x="334" width="136" height="30" as="geometry">
            <mxRectangle width="136" height="30" as="alternateBounds" />
          </mxGeometry>
        </mxCell>
        <mxCell id="EzJvQKpD51RxZactWaan-121" value="&lt;h1&gt;&lt;font style=&quot;&quot;&gt;&lt;span style=&quot;font-size: 20px;&quot;&gt;pinctrl引用描述&lt;/span&gt;&lt;br&gt;&lt;/font&gt;&lt;/h1&gt;" style="rounded=0;whiteSpace=wrap;html=1;fillColor=#dae8fc;strokeColor=#6c8ebf;" vertex="1" parent="1">
          <mxGeometry x="-330" y="830" width="470" height="29" as="geometry" />
        </mxCell>
        <mxCell id="EzJvQKpD51RxZactWaan-122" style="edgeStyle=orthogonalEdgeStyle;rounded=0;orthogonalLoop=1;jettySize=auto;html=1;entryX=0.003;entryY=0.192;entryDx=0;entryDy=0;entryPerimeter=0;fillColor=#e1d5e7;strokeColor=#9673a6;strokeWidth=2;curved=1;" edge="1" parent="1" source="EzJvQKpD51RxZactWaan-86" target="UvsXHOnpaCu9hmhHPp6C-1">
          <mxGeometry relative="1" as="geometry" />
        </mxCell>
        <mxCell id="EzJvQKpD51RxZactWaan-123" style="edgeStyle=orthogonalEdgeStyle;rounded=0;orthogonalLoop=1;jettySize=auto;html=1;entryX=0.001;entryY=0.209;entryDx=0;entryDy=0;entryPerimeter=0;fillColor=#e1d5e7;strokeColor=#9673a6;strokeWidth=2;curved=1;" edge="1" parent="1" source="EzJvQKpD51RxZactWaan-95" target="UvsXHOnpaCu9hmhHPp6C-1">
          <mxGeometry relative="1" as="geometry" />
        </mxCell>
        <mxCell id="EzJvQKpD51RxZactWaan-124" style="edgeStyle=orthogonalEdgeStyle;rounded=0;orthogonalLoop=1;jettySize=auto;html=1;entryX=0;entryY=0.5;entryDx=0;entryDy=0;fillColor=#ffff88;strokeColor=#FFFF33;strokeWidth=2;curved=1;" edge="1" parent="1" source="EzJvQKpD51RxZactWaan-109" target="EzJvQKpD51RxZactWaan-25">
          <mxGeometry relative="1" as="geometry" />
        </mxCell>
        <mxCell id="EzJvQKpD51RxZactWaan-125" style="edgeStyle=orthogonalEdgeStyle;rounded=0;orthogonalLoop=1;jettySize=auto;html=1;entryX=0;entryY=0.5;entryDx=0;entryDy=0;curved=1;fillColor=#cdeb8b;strokeColor=#97D077;strokeWidth=2;" edge="1" parent="1" source="EzJvQKpD51RxZactWaan-112" target="EzJvQKpD51RxZactWaan-26">
          <mxGeometry relative="1" as="geometry" />
        </mxCell>
        <mxCell id="EzJvQKpD51RxZactWaan-126" style="edgeStyle=orthogonalEdgeStyle;rounded=0;orthogonalLoop=1;jettySize=auto;html=1;entryX=1;entryY=0.5;entryDx=0;entryDy=0;fillColor=#ffe6cc;strokeColor=#d79b00;strokeWidth=2;curved=1;" edge="1" parent="1" source="UvsXHOnpaCu9hmhHPp6C-22" target="EzJvQKpD51RxZactWaan-17">
          <mxGeometry relative="1" as="geometry">
            <Array as="points">
              <mxPoint x="1090" y="340" />
              <mxPoint x="1090" y="680" />
            </Array>
          </mxGeometry>
        </mxCell>
        <mxCell id="EzJvQKpD51RxZactWaan-127" style="edgeStyle=orthogonalEdgeStyle;rounded=0;orthogonalLoop=1;jettySize=auto;html=1;entryX=1;entryY=0.5;entryDx=0;entryDy=0;fillColor=#fff2cc;strokeColor=#d6b656;strokeWidth=2;curved=1;" edge="1" parent="1" source="EzJvQKpD51RxZactWaan-44" target="EzJvQKpD51RxZactWaan-18">
          <mxGeometry relative="1" as="geometry">
            <Array as="points">
              <mxPoint x="1100" y="400" />
              <mxPoint x="1100" y="700" />
            </Array>
          </mxGeometry>
        </mxCell>
        <mxCell id="EzJvQKpD51RxZactWaan-128" style="edgeStyle=orthogonalEdgeStyle;rounded=0;orthogonalLoop=1;jettySize=auto;html=1;entryX=1;entryY=0.5;entryDx=0;entryDy=0;fillColor=#f8cecc;strokeColor=#b85450;strokeWidth=2;curved=1;" edge="1" parent="1" source="EzJvQKpD51RxZactWaan-47" target="EzJvQKpD51RxZactWaan-34">
          <mxGeometry relative="1" as="geometry">
            <Array as="points">
              <mxPoint x="1110" y="1020" />
            </Array>
          </mxGeometry>
        </mxCell>
        <mxCell id="EzJvQKpD51RxZactWaan-129" value="&lt;b style=&quot;color: rgb(234, 107, 102); font-size: 16px;&quot;&gt;个数由引用的gpio控制器中&lt;br&gt;#gpio-cells决定&lt;/b&gt;" style="edgeLabel;html=1;align=center;verticalAlign=middle;resizable=0;points=[];" vertex="1" connectable="0" parent="EzJvQKpD51RxZactWaan-128">
          <mxGeometry x="-0.11" y="-6" relative="1" as="geometry">
            <mxPoint x="46" y="78" as="offset" />
          </mxGeometry>
        </mxCell>
        <mxCell id="EzJvQKpD51RxZactWaan-130" value="" style="shape=table;startSize=0;container=1;collapsible=0;childLayout=tableLayout;fixedRows=1;rowLines=0;fontStyle=0;strokeColor=#6c8ebf;fontSize=16;fillColor=none;" vertex="1" parent="1">
          <mxGeometry x="220" y="1279" width="590" height="241" as="geometry" />
        </mxCell>
        <mxCell id="EzJvQKpD51RxZactWaan-131" value="" style="shape=tableRow;horizontal=0;startSize=0;swimlaneHead=0;swimlaneBody=0;top=0;left=0;bottom=0;right=0;collapsible=0;dropTarget=0;fillColor=none;points=[[0,0.5],[1,0.5]];portConstraint=eastwest;strokeColor=#6c8ebf;fontSize=16;" vertex="1" parent="EzJvQKpD51RxZactWaan-130">
          <mxGeometry width="590" height="61" as="geometry" />
        </mxCell>
        <mxCell id="EzJvQKpD51RxZactWaan-132" value="&lt;font color=&quot;#000000&quot;&gt;&lt;b&gt;核心函数&lt;/b&gt;&lt;/font&gt;" style="shape=partialRectangle;html=1;whiteSpace=wrap;connectable=0;fillColor=none;top=0;left=0;bottom=0;right=0;overflow=hidden;pointerEvents=1;strokeColor=#666666;fontSize=16;fontColor=#333333;" vertex="1" parent="EzJvQKpD51RxZactWaan-131">
          <mxGeometry width="110" height="61" as="geometry">
            <mxRectangle width="110" height="61" as="alternateBounds" />
          </mxGeometry>
        </mxCell>
        <mxCell id="EzJvQKpD51RxZactWaan-133" value="int &lt;b&gt;of_get_named_gpio_flags&lt;/b&gt;(struct device_node *np, const char *propname, int index, enum of_gpio_flags *flags)" style="shape=partialRectangle;html=1;whiteSpace=wrap;connectable=0;fillColor=none;top=0;left=0;bottom=0;right=0;align=left;spacingLeft=6;overflow=hidden;strokeColor=#6c8ebf;fontSize=16;" vertex="1" parent="EzJvQKpD51RxZactWaan-131">
          <mxGeometry x="110" width="480" height="61" as="geometry">
            <mxRectangle width="480" height="61" as="alternateBounds" />
          </mxGeometry>
        </mxCell>
        <mxCell id="EzJvQKpD51RxZactWaan-134" value="" style="shape=tableRow;horizontal=0;startSize=0;swimlaneHead=0;swimlaneBody=0;top=0;left=0;bottom=0;right=0;collapsible=0;dropTarget=0;fillColor=none;points=[[0,0.5],[1,0.5]];portConstraint=eastwest;strokeColor=#6c8ebf;fontSize=16;" vertex="1" parent="EzJvQKpD51RxZactWaan-130">
          <mxGeometry y="61" width="590" height="60" as="geometry" />
        </mxCell>
        <mxCell id="EzJvQKpD51RxZactWaan-135" value="&lt;font color=&quot;#000000&quot;&gt;&lt;b&gt;无GPIO标志&lt;br&gt;简化&lt;/b&gt;&lt;/font&gt;" style="shape=partialRectangle;html=1;whiteSpace=wrap;connectable=0;fillColor=none;top=0;left=0;bottom=0;right=0;overflow=hidden;pointerEvents=1;strokeColor=#666666;fontSize=16;fontColor=#333333;" vertex="1" parent="EzJvQKpD51RxZactWaan-134">
          <mxGeometry width="110" height="60" as="geometry">
            <mxRectangle width="110" height="60" as="alternateBounds" />
          </mxGeometry>
        </mxCell>
        <mxCell id="EzJvQKpD51RxZactWaan-136" value="static inline int &lt;b&gt;of_get_named_gpio&lt;/b&gt;(struct device_node *np, const char *propname, int index)" style="shape=partialRectangle;html=1;whiteSpace=wrap;connectable=0;fillColor=none;top=0;left=0;bottom=0;right=0;align=left;spacingLeft=6;overflow=hidden;strokeColor=#6c8ebf;fontSize=16;" vertex="1" parent="EzJvQKpD51RxZactWaan-134">
          <mxGeometry x="110" width="480" height="60" as="geometry">
            <mxRectangle width="480" height="60" as="alternateBounds" />
          </mxGeometry>
        </mxCell>
        <mxCell id="EzJvQKpD51RxZactWaan-142" value="" style="shape=tableRow;horizontal=0;startSize=0;swimlaneHead=0;swimlaneBody=0;top=0;left=0;bottom=0;right=0;collapsible=0;dropTarget=0;fillColor=none;points=[[0,0.5],[1,0.5]];portConstraint=eastwest;strokeColor=#6c8ebf;fontSize=16;" vertex="1" parent="EzJvQKpD51RxZactWaan-130">
          <mxGeometry y="121" width="590" height="60" as="geometry" />
        </mxCell>
        <mxCell id="EzJvQKpD51RxZactWaan-143" value="&lt;font color=&quot;#000000&quot;&gt;&lt;b&gt;统计指定节点&lt;br&gt;gpio数量&lt;/b&gt;&lt;/font&gt;" style="shape=partialRectangle;html=1;whiteSpace=wrap;connectable=0;fillColor=none;top=0;left=0;bottom=0;right=0;overflow=hidden;pointerEvents=1;strokeColor=#666666;fontSize=16;fontColor=#333333;" vertex="1" parent="EzJvQKpD51RxZactWaan-142">
          <mxGeometry width="110" height="60" as="geometry">
            <mxRectangle width="110" height="60" as="alternateBounds" />
          </mxGeometry>
        </mxCell>
        <mxCell id="EzJvQKpD51RxZactWaan-144" value="&lt;div&gt;static inline int &lt;b&gt;of_gpio_count&lt;/b&gt;(struct device_node *np, const char *propname)&lt;/div&gt;" style="shape=partialRectangle;html=1;whiteSpace=wrap;connectable=0;fillColor=none;top=0;left=0;bottom=0;right=0;align=left;spacingLeft=6;overflow=hidden;strokeColor=#6c8ebf;fontSize=16;" vertex="1" parent="EzJvQKpD51RxZactWaan-142">
          <mxGeometry x="110" width="480" height="60" as="geometry">
            <mxRectangle width="480" height="60" as="alternateBounds" />
          </mxGeometry>
        </mxCell>
        <mxCell id="EzJvQKpD51RxZactWaan-145" value="" style="shape=tableRow;horizontal=0;startSize=0;swimlaneHead=0;swimlaneBody=0;top=0;left=0;bottom=0;right=0;collapsible=0;dropTarget=0;fillColor=none;points=[[0,0.5],[1,0.5]];portConstraint=eastwest;strokeColor=#6c8ebf;fontSize=16;" vertex="1" parent="EzJvQKpD51RxZactWaan-130">
          <mxGeometry y="181" width="590" height="60" as="geometry" />
        </mxCell>
        <mxCell id="EzJvQKpD51RxZactWaan-146" value="&lt;font&gt;&lt;b style=&quot;&quot;&gt;&lt;font color=&quot;#000000&quot;&gt;统计指定节点&lt;/font&gt;&lt;font style=&quot;color: rgb(234, 107, 102);&quot;&gt;带命名的gpio数量&lt;/font&gt;&lt;/b&gt;&lt;/font&gt;" style="shape=partialRectangle;html=1;whiteSpace=wrap;connectable=0;fillColor=none;top=0;left=0;bottom=0;right=0;overflow=hidden;pointerEvents=1;strokeColor=#666666;fontSize=16;fontColor=#333333;" vertex="1" parent="EzJvQKpD51RxZactWaan-145">
          <mxGeometry width="110" height="60" as="geometry">
            <mxRectangle width="110" height="60" as="alternateBounds" />
          </mxGeometry>
        </mxCell>
        <mxCell id="EzJvQKpD51RxZactWaan-147" value="&lt;div&gt;int &lt;b&gt;of_gpio_named_count&lt;/b&gt;(struct device_node *np, const char *propname)&lt;/div&gt;" style="shape=partialRectangle;html=1;whiteSpace=wrap;connectable=0;fillColor=none;top=0;left=0;bottom=0;right=0;align=left;spacingLeft=6;overflow=hidden;strokeColor=#6c8ebf;fontSize=16;" vertex="1" parent="EzJvQKpD51RxZactWaan-145">
          <mxGeometry x="110" width="480" height="60" as="geometry">
            <mxRectangle width="480" height="60" as="alternateBounds" />
          </mxGeometry>
        </mxCell>
        <mxCell id="EzJvQKpD51RxZactWaan-137" value="&lt;h1&gt;&lt;font style=&quot;font-size: 16px;&quot;&gt;&lt;font style=&quot;&quot;&gt;of函数获取GPIO资源&lt;/font&gt;&lt;/font&gt;&lt;/h1&gt;" style="rounded=0;whiteSpace=wrap;html=1;fillColor=#dae8fc;strokeColor=#6c8ebf;" vertex="1" parent="1">
          <mxGeometry x="220" y="1250" width="590" height="29" as="geometry" />
        </mxCell>
        <mxCell id="EzJvQKpD51RxZactWaan-138" value="&lt;b&gt;np：&lt;/b&gt;gpio设备节点，&lt;b&gt;propname：&lt;/b&gt;GPIO属性名称（如&quot;reset-gpios&quot;）&lt;div&gt;&lt;b&gt;index：&lt;/b&gt;GPIO索引（当属性包含多个GPIO时）&lt;br&gt;&lt;b&gt;flags：&lt;/b&gt;输出参数，返回GPIO标志&lt;br&gt;&lt;b&gt;返回值：&lt;/b&gt;成功-gpio编号，失败-负数错误码&lt;/div&gt;" style="text;html=1;align=left;verticalAlign=middle;whiteSpace=wrap;rounded=0;fillColor=#dae8fc;strokeColor=#6c8ebf;dashed=1;fontSize=14;" vertex="1" parent="1">
          <mxGeometry x="860" y="1250" width="460" height="86.75" as="geometry" />
        </mxCell>
        <mxCell id="EzJvQKpD51RxZactWaan-139" value="&lt;b&gt;同上&lt;/b&gt;" style="text;html=1;align=left;verticalAlign=middle;whiteSpace=wrap;rounded=0;fillColor=#dae8fc;strokeColor=#6c8ebf;dashed=1;fontSize=14;" vertex="1" parent="1">
          <mxGeometry x="860" y="1355" width="40" height="30" as="geometry" />
        </mxCell>
        <mxCell id="EzJvQKpD51RxZactWaan-140" style="edgeStyle=orthogonalEdgeStyle;rounded=0;orthogonalLoop=1;jettySize=auto;html=1;entryX=0;entryY=0.5;entryDx=0;entryDy=0;fillColor=#dae8fc;strokeColor=#6c8ebf;strokeWidth=2;" edge="1" parent="1" source="EzJvQKpD51RxZactWaan-131" target="EzJvQKpD51RxZactWaan-138">
          <mxGeometry relative="1" as="geometry" />
        </mxCell>
        <mxCell id="EzJvQKpD51RxZactWaan-141" style="edgeStyle=orthogonalEdgeStyle;rounded=0;orthogonalLoop=1;jettySize=auto;html=1;entryX=0;entryY=0.5;entryDx=0;entryDy=0;fillColor=#dae8fc;strokeColor=#6c8ebf;strokeWidth=2;" edge="1" parent="1" source="EzJvQKpD51RxZactWaan-134" target="EzJvQKpD51RxZactWaan-139">
          <mxGeometry relative="1" as="geometry" />
        </mxCell>
        <mxCell id="EzJvQKpD51RxZactWaan-148" value="&lt;b&gt;np：&lt;/b&gt;gpio设备节点，&lt;b&gt;propname：&lt;/b&gt;GPIO属性名称（如&quot;reset-gpios&quot;）&lt;div&gt;&lt;b&gt;返回值：&lt;/b&gt;成功-gpio&lt;b&gt;数量&lt;/b&gt;，失败-负数错误码&lt;/div&gt;" style="text;html=1;align=left;verticalAlign=middle;whiteSpace=wrap;rounded=0;fillColor=#dae8fc;strokeColor=#6c8ebf;dashed=1;fontSize=14;" vertex="1" parent="1">
          <mxGeometry x="860" y="1410" width="460" height="40" as="geometry" />
        </mxCell>
        <mxCell id="EzJvQKpD51RxZactWaan-149" style="edgeStyle=orthogonalEdgeStyle;rounded=0;orthogonalLoop=1;jettySize=auto;html=1;entryX=0;entryY=0.5;entryDx=0;entryDy=0;fillColor=#dae8fc;strokeColor=#6c8ebf;strokeWidth=2;" edge="1" parent="1" source="EzJvQKpD51RxZactWaan-142" target="EzJvQKpD51RxZactWaan-148">
          <mxGeometry relative="1" as="geometry" />
        </mxCell>
        <mxCell id="EzJvQKpD51RxZactWaan-150" value="&lt;b&gt;同上&lt;/b&gt;" style="text;html=1;align=left;verticalAlign=middle;whiteSpace=wrap;rounded=0;fillColor=#dae8fc;strokeColor=#6c8ebf;dashed=1;fontSize=14;" vertex="1" parent="1">
          <mxGeometry x="860" y="1475" width="40" height="30" as="geometry" />
        </mxCell>
        <mxCell id="EzJvQKpD51RxZactWaan-151" style="edgeStyle=orthogonalEdgeStyle;rounded=0;orthogonalLoop=1;jettySize=auto;html=1;entryX=0;entryY=0.5;entryDx=0;entryDy=0;fillColor=#dae8fc;strokeColor=#6c8ebf;strokeWidth=2;" edge="1" parent="1" source="EzJvQKpD51RxZactWaan-145" target="EzJvQKpD51RxZactWaan-150">
          <mxGeometry relative="1" as="geometry" />
        </mxCell>
        <mxCell id="EzJvQKpD51RxZactWaan-152" value="" style="shape=table;startSize=0;container=1;collapsible=0;childLayout=tableLayout;fixedRows=1;rowLines=0;fontStyle=0;strokeColor=default;fontSize=14;" vertex="1" parent="1">
          <mxGeometry x="-325" y="1029" width="530" height="121" as="geometry" />
        </mxCell>
        <mxCell id="EzJvQKpD51RxZactWaan-153" value="" style="shape=tableRow;horizontal=0;startSize=0;swimlaneHead=0;swimlaneBody=0;top=0;left=0;bottom=0;right=0;collapsible=0;dropTarget=0;fillColor=none;points=[[0,0.5],[1,0.5]];portConstraint=eastwest;strokeColor=inherit;fontSize=14;" vertex="1" parent="EzJvQKpD51RxZactWaan-152">
          <mxGeometry width="530" height="61" as="geometry" />
        </mxCell>
        <mxCell id="EzJvQKpD51RxZactWaan-154" value="&lt;b&gt;bank（引脚组）&lt;/b&gt;" style="shape=partialRectangle;html=1;whiteSpace=wrap;connectable=0;fillColor=none;top=0;left=0;bottom=0;right=0;overflow=hidden;pointerEvents=1;strokeColor=inherit;fontSize=14;" vertex="1" parent="EzJvQKpD51RxZactWaan-153">
          <mxGeometry width="130" height="61" as="geometry">
            <mxRectangle width="130" height="61" as="alternateBounds" />
          </mxGeometry>
        </mxCell>
        <mxCell id="EzJvQKpD51RxZactWaan-155" value="1、根据&lt;b&gt;引脚名称&lt;/b&gt;，将引脚分为若干个组，每组为一个bank&lt;br&gt;2、每个芯片对于bank的要求不一样" style="shape=partialRectangle;html=1;whiteSpace=wrap;connectable=0;fillColor=none;top=0;left=0;bottom=0;right=0;align=left;spacingLeft=6;overflow=hidden;strokeColor=inherit;fontSize=14;" vertex="1" parent="EzJvQKpD51RxZactWaan-153">
          <mxGeometry x="130" width="400" height="61" as="geometry">
            <mxRectangle width="400" height="61" as="alternateBounds" />
          </mxGeometry>
        </mxCell>
        <mxCell id="EzJvQKpD51RxZactWaan-156" value="" style="shape=tableRow;horizontal=0;startSize=0;swimlaneHead=0;swimlaneBody=0;top=0;left=0;bottom=0;right=0;collapsible=0;dropTarget=0;fillColor=none;points=[[0,0.5],[1,0.5]];portConstraint=eastwest;strokeColor=inherit;fontSize=14;" vertex="1" parent="EzJvQKpD51RxZactWaan-152">
          <mxGeometry y="61" width="530" height="30" as="geometry" />
        </mxCell>
        <mxCell id="EzJvQKpD51RxZactWaan-157" value="&lt;b&gt;group（功能组）&lt;/b&gt;" style="shape=partialRectangle;html=1;whiteSpace=wrap;connectable=0;fillColor=none;top=0;left=0;bottom=0;right=0;overflow=hidden;strokeColor=inherit;fontSize=14;" vertex="1" parent="EzJvQKpD51RxZactWaan-156">
          <mxGeometry width="130" height="30" as="geometry">
            <mxRectangle width="130" height="30" as="alternateBounds" />
          </mxGeometry>
        </mxCell>
        <mxCell id="EzJvQKpD51RxZactWaan-158" value="1、根据&lt;b&gt;功能&lt;/b&gt;，将具有相同功能的引脚称为一个group" style="shape=partialRectangle;html=1;whiteSpace=wrap;connectable=0;fillColor=none;top=0;left=0;bottom=0;right=0;align=left;spacingLeft=6;overflow=hidden;strokeColor=inherit;fontSize=14;" vertex="1" parent="EzJvQKpD51RxZactWaan-156">
          <mxGeometry x="130" width="400" height="30" as="geometry">
            <mxRectangle width="400" height="30" as="alternateBounds" />
          </mxGeometry>
        </mxCell>
        <mxCell id="EzJvQKpD51RxZactWaan-159" value="" style="shape=tableRow;horizontal=0;startSize=0;swimlaneHead=0;swimlaneBody=0;top=0;left=0;bottom=0;right=0;collapsible=0;dropTarget=0;fillColor=none;points=[[0,0.5],[1,0.5]];portConstraint=eastwest;strokeColor=inherit;fontSize=14;" vertex="1" parent="EzJvQKpD51RxZactWaan-152">
          <mxGeometry y="91" width="530" height="30" as="geometry" />
        </mxCell>
        <mxCell id="EzJvQKpD51RxZactWaan-160" value="&lt;b&gt;state（状态）&lt;/b&gt;" style="shape=partialRectangle;html=1;whiteSpace=wrap;connectable=0;fillColor=none;top=0;left=0;bottom=0;right=0;overflow=hidden;strokeColor=inherit;fontSize=14;" vertex="1" parent="EzJvQKpD51RxZactWaan-159">
          <mxGeometry width="130" height="30" as="geometry">
            <mxRectangle width="130" height="30" as="alternateBounds" />
          </mxGeometry>
        </mxCell>
        <mxCell id="EzJvQKpD51RxZactWaan-161" value="1、定义某种工作状态，既有内核的标准状态，也有自定义状态" style="shape=partialRectangle;html=1;whiteSpace=wrap;connectable=0;fillColor=none;top=0;left=0;bottom=0;right=0;align=left;spacingLeft=6;overflow=hidden;strokeColor=inherit;fontSize=14;" vertex="1" parent="EzJvQKpD51RxZactWaan-159">
          <mxGeometry x="130" width="400" height="30" as="geometry">
            <mxRectangle width="400" height="30" as="alternateBounds" />
          </mxGeometry>
        </mxCell>
        <mxCell id="EzJvQKpD51RxZactWaan-171" value="&lt;h1&gt;&lt;font style=&quot;font-size: 20px;&quot;&gt;Pinctrl重要概念&lt;/font&gt;&lt;/h1&gt;" style="rounded=0;whiteSpace=wrap;html=1;fillColor=#e1d5e7;strokeColor=#9673a6;" vertex="1" parent="1">
          <mxGeometry x="-325" y="990" width="530" height="39" as="geometry" />
        </mxCell>
        <mxCell id="EzJvQKpD51RxZactWaan-172" value="" style="shape=table;startSize=0;container=1;collapsible=0;childLayout=tableLayout;fixedRows=1;rowLines=0;fontStyle=0;strokeColor=#9673a6;fontSize=16;fillColor=none;" vertex="1" parent="1">
          <mxGeometry x="220" y="1579" width="590" height="421" as="geometry" />
        </mxCell>
        <mxCell id="EzJvQKpD51RxZactWaan-173" value="" style="shape=tableRow;horizontal=0;startSize=0;swimlaneHead=0;swimlaneBody=0;top=0;left=0;bottom=0;right=0;collapsible=0;dropTarget=0;fillColor=none;points=[[0,0.5],[1,0.5]];portConstraint=eastwest;strokeColor=#6c8ebf;fontSize=16;" vertex="1" parent="EzJvQKpD51RxZactWaan-172">
          <mxGeometry width="590" height="61" as="geometry" />
        </mxCell>
        <mxCell id="EzJvQKpD51RxZactWaan-174" value="&lt;font color=&quot;#000000&quot;&gt;&lt;b&gt;获取pinctrl&lt;br&gt;句柄&lt;/b&gt;&lt;/font&gt;" style="shape=partialRectangle;html=1;whiteSpace=wrap;connectable=0;fillColor=none;top=0;left=0;bottom=0;right=0;overflow=hidden;pointerEvents=1;strokeColor=#666666;fontSize=16;fontColor=#333333;" vertex="1" parent="EzJvQKpD51RxZactWaan-173">
          <mxGeometry width="110" height="61" as="geometry">
            <mxRectangle width="110" height="61" as="alternateBounds" />
          </mxGeometry>
        </mxCell>
        <mxCell id="EzJvQKpD51RxZactWaan-175" value="struct pinctrl *&lt;b&gt;devm_pinctrl_get&lt;/b&gt;(struct device *dev);" style="shape=partialRectangle;html=1;whiteSpace=wrap;connectable=0;fillColor=none;top=0;left=0;bottom=0;right=0;align=left;spacingLeft=6;overflow=hidden;strokeColor=#6c8ebf;fontSize=16;" vertex="1" parent="EzJvQKpD51RxZactWaan-173">
          <mxGeometry x="110" width="480" height="61" as="geometry">
            <mxRectangle width="480" height="61" as="alternateBounds" />
          </mxGeometry>
        </mxCell>
        <mxCell id="EzJvQKpD51RxZactWaan-176" value="" style="shape=tableRow;horizontal=0;startSize=0;swimlaneHead=0;swimlaneBody=0;top=0;left=0;bottom=0;right=0;collapsible=0;dropTarget=0;fillColor=none;points=[[0,0.5],[1,0.5]];portConstraint=eastwest;strokeColor=#6c8ebf;fontSize=16;" vertex="1" parent="EzJvQKpD51RxZactWaan-172">
          <mxGeometry y="61" width="590" height="60" as="geometry" />
        </mxCell>
        <mxCell id="EzJvQKpD51RxZactWaan-177" value="&lt;b style=&quot;color: rgb(0, 0, 0);&quot;&gt;获取pinctrl&lt;br&gt;句柄（推荐）&lt;/b&gt;" style="shape=partialRectangle;html=1;whiteSpace=wrap;connectable=0;fillColor=none;top=0;left=0;bottom=0;right=0;overflow=hidden;pointerEvents=1;strokeColor=#666666;fontSize=16;fontColor=#333333;" vertex="1" parent="EzJvQKpD51RxZactWaan-176">
          <mxGeometry width="110" height="60" as="geometry">
            <mxRectangle width="110" height="60" as="alternateBounds" />
          </mxGeometry>
        </mxCell>
        <mxCell id="EzJvQKpD51RxZactWaan-178" value="struct pinctrl *&lt;b&gt;devm_pinctrl_get_select_default&lt;/b&gt;(struct device *dev);" style="shape=partialRectangle;html=1;whiteSpace=wrap;connectable=0;fillColor=none;top=0;left=0;bottom=0;right=0;align=left;spacingLeft=6;overflow=hidden;strokeColor=#6c8ebf;fontSize=16;" vertex="1" parent="EzJvQKpD51RxZactWaan-176">
          <mxGeometry x="110" width="480" height="60" as="geometry">
            <mxRectangle width="480" height="60" as="alternateBounds" />
          </mxGeometry>
        </mxCell>
        <mxCell id="EzJvQKpD51RxZactWaan-179" value="" style="shape=tableRow;horizontal=0;startSize=0;swimlaneHead=0;swimlaneBody=0;top=0;left=0;bottom=0;right=0;collapsible=0;dropTarget=0;fillColor=none;points=[[0,0.5],[1,0.5]];portConstraint=eastwest;strokeColor=#6c8ebf;fontSize=16;" vertex="1" parent="EzJvQKpD51RxZactWaan-172">
          <mxGeometry y="121" width="590" height="60" as="geometry" />
        </mxCell>
        <mxCell id="EzJvQKpD51RxZactWaan-180" value="&lt;font color=&quot;#000000&quot;&gt;&lt;b&gt;查找指定名称的状态&lt;/b&gt;&lt;/font&gt;" style="shape=partialRectangle;html=1;whiteSpace=wrap;connectable=0;fillColor=none;top=0;left=0;bottom=0;right=0;overflow=hidden;pointerEvents=1;strokeColor=#666666;fontSize=16;fontColor=#333333;" vertex="1" parent="EzJvQKpD51RxZactWaan-179">
          <mxGeometry width="110" height="60" as="geometry">
            <mxRectangle width="110" height="60" as="alternateBounds" />
          </mxGeometry>
        </mxCell>
        <mxCell id="EzJvQKpD51RxZactWaan-181" value="struct pinctrl_state *&lt;b&gt;pinctrl_lookup_state&lt;/b&gt;(struct pinctrl *p, const char *name);" style="shape=partialRectangle;html=1;whiteSpace=wrap;connectable=0;fillColor=none;top=0;left=0;bottom=0;right=0;align=left;spacingLeft=6;overflow=hidden;strokeColor=#6c8ebf;fontSize=16;" vertex="1" parent="EzJvQKpD51RxZactWaan-179">
          <mxGeometry x="110" width="480" height="60" as="geometry">
            <mxRectangle width="480" height="60" as="alternateBounds" />
          </mxGeometry>
        </mxCell>
        <mxCell id="EzJvQKpD51RxZactWaan-182" value="" style="shape=tableRow;horizontal=0;startSize=0;swimlaneHead=0;swimlaneBody=0;top=0;left=0;bottom=0;right=0;collapsible=0;dropTarget=0;fillColor=none;points=[[0,0.5],[1,0.5]];portConstraint=eastwest;strokeColor=#6c8ebf;fontSize=16;" vertex="1" parent="EzJvQKpD51RxZactWaan-172">
          <mxGeometry y="181" width="590" height="60" as="geometry" />
        </mxCell>
        <mxCell id="EzJvQKpD51RxZactWaan-183" value="&lt;font color=&quot;#000000&quot;&gt;&lt;b&gt;选择激活状态&lt;/b&gt;&lt;/font&gt;" style="shape=partialRectangle;html=1;whiteSpace=wrap;connectable=0;fillColor=none;top=0;left=0;bottom=0;right=0;overflow=hidden;pointerEvents=1;strokeColor=#666666;fontSize=16;fontColor=#333333;" vertex="1" parent="EzJvQKpD51RxZactWaan-182">
          <mxGeometry width="110" height="60" as="geometry">
            <mxRectangle width="110" height="60" as="alternateBounds" />
          </mxGeometry>
        </mxCell>
        <mxCell id="EzJvQKpD51RxZactWaan-184" value="int &lt;b&gt;pinctrl_select_state&lt;/b&gt;(struct pinctrl *p, struct pinctrl_state *state);" style="shape=partialRectangle;html=1;whiteSpace=wrap;connectable=0;fillColor=none;top=0;left=0;bottom=0;right=0;align=left;spacingLeft=6;overflow=hidden;strokeColor=#6c8ebf;fontSize=16;" vertex="1" parent="EzJvQKpD51RxZactWaan-182">
          <mxGeometry x="110" width="480" height="60" as="geometry">
            <mxRectangle width="480" height="60" as="alternateBounds" />
          </mxGeometry>
        </mxCell>
        <mxCell id="EzJvQKpD51RxZactWaan-194" value="" style="shape=tableRow;horizontal=0;startSize=0;swimlaneHead=0;swimlaneBody=0;top=0;left=0;bottom=0;right=0;collapsible=0;dropTarget=0;fillColor=none;points=[[0,0.5],[1,0.5]];portConstraint=eastwest;strokeColor=#6c8ebf;fontSize=16;" vertex="1" parent="EzJvQKpD51RxZactWaan-172">
          <mxGeometry y="241" width="590" height="60" as="geometry" />
        </mxCell>
        <mxCell id="EzJvQKpD51RxZactWaan-195" value="&lt;font color=&quot;#000000&quot;&gt;&lt;b&gt;获取并选择状态&lt;/b&gt;&lt;/font&gt;" style="shape=partialRectangle;html=1;whiteSpace=wrap;connectable=0;fillColor=none;top=0;left=0;bottom=0;right=0;overflow=hidden;pointerEvents=1;strokeColor=#666666;fontSize=16;fontColor=#333333;" vertex="1" parent="EzJvQKpD51RxZactWaan-194">
          <mxGeometry width="110" height="60" as="geometry">
            <mxRectangle width="110" height="60" as="alternateBounds" />
          </mxGeometry>
        </mxCell>
        <mxCell id="EzJvQKpD51RxZactWaan-196" value="struct pinctrl *&lt;b&gt;pinctrl_get_select&lt;/b&gt;(struct device *dev, const char *name);" style="shape=partialRectangle;html=1;whiteSpace=wrap;connectable=0;fillColor=none;top=0;left=0;bottom=0;right=0;align=left;spacingLeft=6;overflow=hidden;strokeColor=#6c8ebf;fontSize=16;" vertex="1" parent="EzJvQKpD51RxZactWaan-194">
          <mxGeometry x="110" width="480" height="60" as="geometry">
            <mxRectangle width="480" height="60" as="alternateBounds" />
          </mxGeometry>
        </mxCell>
        <mxCell id="EzJvQKpD51RxZactWaan-197" value="" style="shape=tableRow;horizontal=0;startSize=0;swimlaneHead=0;swimlaneBody=0;top=0;left=0;bottom=0;right=0;collapsible=0;dropTarget=0;fillColor=none;points=[[0,0.5],[1,0.5]];portConstraint=eastwest;strokeColor=#6c8ebf;fontSize=16;" vertex="1" parent="EzJvQKpD51RxZactWaan-172">
          <mxGeometry y="301" width="590" height="60" as="geometry" />
        </mxCell>
        <mxCell id="EzJvQKpD51RxZactWaan-198" value="&lt;font color=&quot;#000000&quot;&gt;&lt;b&gt;释放pinctrl资源&lt;/b&gt;&lt;/font&gt;" style="shape=partialRectangle;html=1;whiteSpace=wrap;connectable=0;fillColor=none;top=0;left=0;bottom=0;right=0;overflow=hidden;pointerEvents=1;strokeColor=#666666;fontSize=16;fontColor=#333333;" vertex="1" parent="EzJvQKpD51RxZactWaan-197">
          <mxGeometry width="110" height="60" as="geometry">
            <mxRectangle width="110" height="60" as="alternateBounds" />
          </mxGeometry>
        </mxCell>
        <mxCell id="EzJvQKpD51RxZactWaan-199" value="void &lt;b&gt;pinctrl_put&lt;/b&gt;(struct pinctrl *p);" style="shape=partialRectangle;html=1;whiteSpace=wrap;connectable=0;fillColor=none;top=0;left=0;bottom=0;right=0;align=left;spacingLeft=6;overflow=hidden;strokeColor=#6c8ebf;fontSize=16;" vertex="1" parent="EzJvQKpD51RxZactWaan-197">
          <mxGeometry x="110" width="480" height="60" as="geometry">
            <mxRectangle width="480" height="60" as="alternateBounds" />
          </mxGeometry>
        </mxCell>
        <mxCell id="EzJvQKpD51RxZactWaan-200" value="" style="shape=tableRow;horizontal=0;startSize=0;swimlaneHead=0;swimlaneBody=0;top=0;left=0;bottom=0;right=0;collapsible=0;dropTarget=0;fillColor=none;points=[[0,0.5],[1,0.5]];portConstraint=eastwest;strokeColor=#6c8ebf;fontSize=16;" vertex="1" parent="EzJvQKpD51RxZactWaan-172">
          <mxGeometry y="361" width="590" height="60" as="geometry" />
        </mxCell>
        <mxCell id="EzJvQKpD51RxZactWaan-201" value="&lt;font color=&quot;#000000&quot;&gt;&lt;b&gt;devm_相关释放&lt;/b&gt;&lt;/font&gt;" style="shape=partialRectangle;html=1;whiteSpace=wrap;connectable=0;fillColor=none;top=0;left=0;bottom=0;right=0;overflow=hidden;pointerEvents=1;strokeColor=#666666;fontSize=16;fontColor=#333333;" vertex="1" parent="EzJvQKpD51RxZactWaan-200">
          <mxGeometry width="110" height="60" as="geometry">
            <mxRectangle width="110" height="60" as="alternateBounds" />
          </mxGeometry>
        </mxCell>
        <mxCell id="EzJvQKpD51RxZactWaan-202" value="移出设备会自动释放，不需要考虑" style="shape=partialRectangle;html=1;whiteSpace=wrap;connectable=0;fillColor=none;top=0;left=0;bottom=0;right=0;align=left;spacingLeft=6;overflow=hidden;strokeColor=#6c8ebf;fontSize=16;" vertex="1" parent="EzJvQKpD51RxZactWaan-200">
          <mxGeometry x="110" width="480" height="60" as="geometry">
            <mxRectangle width="480" height="60" as="alternateBounds" />
          </mxGeometry>
        </mxCell>
        <mxCell id="EzJvQKpD51RxZactWaan-185" value="&lt;h1&gt;&lt;font style=&quot;font-size: 16px;&quot;&gt;&lt;font style=&quot;&quot;&gt;函数获取Pinctral资源&lt;/font&gt;&lt;/font&gt;&lt;/h1&gt;" style="rounded=0;whiteSpace=wrap;html=1;fillColor=#e1d5e7;strokeColor=#9673a6;" vertex="1" parent="1">
          <mxGeometry x="220" y="1550" width="590" height="29" as="geometry" />
        </mxCell>
        <mxCell id="EzJvQKpD51RxZactWaan-186" value="&lt;b&gt;dev：&lt;/b&gt;具体的设备节点&lt;br&gt;&lt;b&gt;返回值：&lt;/b&gt;成功-pinctrl结构体，失败-NULL" style="text;html=1;align=left;verticalAlign=middle;whiteSpace=wrap;rounded=0;fillColor=#e1d5e7;strokeColor=#9673a6;dashed=1;fontSize=14;" vertex="1" parent="1">
          <mxGeometry x="860" y="1586.12" width="460" height="46.75" as="geometry" />
        </mxCell>
        <mxCell id="EzJvQKpD51RxZactWaan-187" value="&lt;b&gt;同上&lt;/b&gt;" style="text;html=1;align=left;verticalAlign=middle;whiteSpace=wrap;rounded=0;fillColor=#e1d5e7;strokeColor=#9673a6;dashed=1;fontSize=14;" vertex="1" parent="1">
          <mxGeometry x="860" y="1655" width="40" height="30" as="geometry" />
        </mxCell>
        <mxCell id="EzJvQKpD51RxZactWaan-188" style="edgeStyle=orthogonalEdgeStyle;rounded=0;orthogonalLoop=1;jettySize=auto;html=1;entryX=0;entryY=0.5;entryDx=0;entryDy=0;fillColor=#e1d5e7;strokeColor=#9673a6;strokeWidth=2;" edge="1" source="EzJvQKpD51RxZactWaan-173" target="EzJvQKpD51RxZactWaan-186" parent="1">
          <mxGeometry relative="1" as="geometry" />
        </mxCell>
        <mxCell id="EzJvQKpD51RxZactWaan-189" style="edgeStyle=orthogonalEdgeStyle;rounded=0;orthogonalLoop=1;jettySize=auto;html=1;entryX=0;entryY=0.5;entryDx=0;entryDy=0;fillColor=#e1d5e7;strokeColor=#9673a6;strokeWidth=2;" edge="1" source="EzJvQKpD51RxZactWaan-176" target="EzJvQKpD51RxZactWaan-187" parent="1">
          <mxGeometry relative="1" as="geometry" />
        </mxCell>
        <mxCell id="EzJvQKpD51RxZactWaan-190" value="&lt;b&gt;p：&lt;/b&gt;实际的pinctrl，&lt;b&gt;name：&lt;/b&gt;状态的名称&lt;div&gt;&lt;b&gt;返回值：&lt;/b&gt;成功-pinctrl_state状态结构体，失败-NULL&lt;/div&gt;" style="text;html=1;align=left;verticalAlign=middle;whiteSpace=wrap;rounded=0;fillColor=#e1d5e7;strokeColor=#9673a6;dashed=1;fontSize=14;" vertex="1" parent="1">
          <mxGeometry x="860" y="1710" width="460" height="40" as="geometry" />
        </mxCell>
        <mxCell id="EzJvQKpD51RxZactWaan-191" style="edgeStyle=orthogonalEdgeStyle;rounded=0;orthogonalLoop=1;jettySize=auto;html=1;entryX=0;entryY=0.5;entryDx=0;entryDy=0;fillColor=#e1d5e7;strokeColor=#9673a6;strokeWidth=2;" edge="1" source="EzJvQKpD51RxZactWaan-179" target="EzJvQKpD51RxZactWaan-190" parent="1">
          <mxGeometry relative="1" as="geometry" />
        </mxCell>
        <mxCell id="EzJvQKpD51RxZactWaan-193" style="edgeStyle=orthogonalEdgeStyle;rounded=0;orthogonalLoop=1;jettySize=auto;html=1;entryX=0;entryY=0.5;entryDx=0;entryDy=0;fillColor=#e1d5e7;strokeColor=#9673a6;strokeWidth=2;" edge="1" source="EzJvQKpD51RxZactWaan-182" parent="1">
          <mxGeometry relative="1" as="geometry">
            <mxPoint x="860" y="1790" as="targetPoint" />
          </mxGeometry>
        </mxCell>
        <mxCell id="EzJvQKpD51RxZactWaan-206" value="&lt;b&gt;p：&lt;/b&gt;实际的pinctrl，&lt;b&gt;name：&lt;/b&gt;需要激活的状态&lt;div&gt;&lt;b&gt;返回值：&lt;/b&gt;成功-0，失败-负数错误码&lt;/div&gt;" style="text;html=1;align=left;verticalAlign=middle;whiteSpace=wrap;rounded=0;fillColor=#e1d5e7;strokeColor=#9673a6;dashed=1;fontSize=14;" vertex="1" parent="1">
          <mxGeometry x="860" y="1769.5" width="460" height="40" as="geometry" />
        </mxCell>
        <mxCell id="EzJvQKpD51RxZactWaan-207" value="&lt;b&gt;dev：&lt;/b&gt;具体的设备节点，&lt;b&gt;name：&lt;/b&gt;状态的名称&lt;br&gt;&lt;b&gt;返回值：&lt;/b&gt;成功-pinctrl结构体，失败-NULL" style="text;html=1;align=left;verticalAlign=middle;whiteSpace=wrap;rounded=0;fillColor=#e1d5e7;strokeColor=#9673a6;dashed=1;fontSize=14;" vertex="1" parent="1">
          <mxGeometry x="860" y="1826.62" width="460" height="46.75" as="geometry" />
        </mxCell>
        <mxCell id="EzJvQKpD51RxZactWaan-208" style="edgeStyle=orthogonalEdgeStyle;rounded=0;orthogonalLoop=1;jettySize=auto;html=1;entryX=0;entryY=0.5;entryDx=0;entryDy=0;fillColor=#e1d5e7;strokeColor=#9673a6;strokeWidth=2;" edge="1" parent="1" source="EzJvQKpD51RxZactWaan-194" target="EzJvQKpD51RxZactWaan-207">
          <mxGeometry relative="1" as="geometry" />
        </mxCell>
        <mxCell id="EzJvQKpD51RxZactWaan-209" value="&lt;font style=&quot;font-size: 20px;&quot;&gt;🌻Make By Dakkk&lt;/font&gt;" style="html=1;shadow=0;dashed=0;shape=mxgraph.bootstrap.rrect;rSize=5;strokeColor=#1CA5B8;strokeWidth=1;fillColor=none;fontColor=#1CA5B8;whiteSpace=wrap;align=center;verticalAlign=middle;spacingLeft=0;fontStyle=1;fontSize=16;spacing=5;" vertex="1" parent="1">
          <mxGeometry x="574.16" y="897.36" width="111.67" height="70.39" as="geometry" />
        </mxCell>
        <mxCell id="EzJvQKpD51RxZactWaan-210" value="&lt;font style=&quot;font-size: 20px;&quot;&gt;🌻Make By Dakkk&lt;/font&gt;" style="html=1;shadow=0;dashed=0;shape=mxgraph.bootstrap.rrect;rSize=5;strokeColor=#1CA5B8;strokeWidth=1;fillColor=none;fontColor=#1CA5B8;whiteSpace=wrap;align=center;verticalAlign=middle;spacingLeft=0;fontStyle=1;fontSize=16;spacing=5;" vertex="1" parent="1">
          <mxGeometry x="-20" y="1208.6100000000001" width="111.67" height="70.39" as="geometry" />
        </mxCell>
      </root>
    </mxGraphModel>
  </diagram>
</mxfile>
